<svg xmlns="http://www.w3.org/2000/svg" xmlns:xlink="http://www.w3.org/1999/xlink" width="81" height="99" viewBox="0 0 81 99"><title>C9BC8EDA-90F1-40BD-942A-F0944A52438E</title><defs><path id="a" d="M46.01 63.772h28.947a5.751 5.751 0 1 0 0-11.503h-52.67v.018C9.326 52.688-.969 63.85.071 77.12c.873 11.134 9.84 20.15 20.97 21.078 13.17 1.098 24.301-8.975 24.938-21.765h.03v-9.06H34.506v7.88l.001.022c0 6.343-5.16 11.502-11.502 11.502-6.343 0-11.502-5.16-11.502-11.502 0-6.288 5.073-11.407 11.341-11.494v-.013h11.662l11.504.005zm.005-29.265V23.112c0-.036-.005-.071-.005-.107 0-6.343 5.16-11.502 11.502-11.502 6.342 0 11.503 5.16 11.503 11.502 0 6.34-5.158 11.5-11.498 11.502h-7.692V46.01h7.215c12.35 0 23.168-10.085 23.47-22.432C80.832 10.441 70.077-.314 56.94.007c-12.347.301-22.433 11.12-22.433 23.47v25.006H46.01V46.01l.005-11.503zm-15.106 0H5.796a5.752 5.752 0 0 0 0 11.503h25.113V34.507z"/></defs><g fill="none" fill-rule="evenodd"><use fill="#7CE15D" xlink:href="#a"/><use fill="#0ACC74" xlink:href="#a"/></g></svg>