<svg xmlns="http://www.w3.org/2000/svg" width="16" height="23" viewBox="0 0 16 23"><title>731DFB76-8CA0-4A35-BF3C-998AA5D9977D</title><path fill="#FFF" fill-rule="nonzero" d="M12.975 5.973a.687.687 0 0 0-.768-.3.676.676 0 0 0-.5.648c0 .823-.678 1.492-1.512 1.492A1.503 1.503 0 0 1 8.683 6.32V.674A.674.674 0 0 0 8.261.05a.69.69 0 0 0-.744.146C7.44.273 5.62 2.08 3.773 4.811c-1.088 1.61-1.957 3.207-2.58 4.747C.4 11.508 0 13.376 0 15.108 0 19.46 3.589 23 8 23s8-3.54 8-7.891c0-2.785-1.018-5.86-3.025-9.136z"/></svg>