<svg xmlns="http://www.w3.org/2000/svg" xmlns:xlink="http://www.w3.org/1999/xlink" width="42" height="51" viewBox="0 0 42 51"><title>C003FBEC-48CD-4ADD-86E2-47F93863A2BE</title><defs><path id="a" d="M0 0h41.389v50.4H0z"/></defs><g fill="none" fill-rule="evenodd"><mask id="b" fill="#fff"><use xlink:href="#a"/></mask><path fill="#FFF" d="M23.595 32.703h14.844a2.95 2.95 0 1 0 0-5.898H11.43v.01C4.783 27.02-.496 32.743.037 39.547c.448 5.71 5.046 10.333 10.754 10.81 6.754.563 12.462-4.603 12.789-11.162h.015V34.55h-5.9v4.04l.001.012a5.905 5.905 0 0 1-5.899 5.899A5.905 5.905 0 0 1 5.9 38.602a5.903 5.903 0 0 1 5.816-5.894V32.7h5.98l5.9.002zm.002-15.007v-5.843l-.002-.056A5.905 5.905 0 0 1 29.493 5.9a5.905 5.905 0 0 1 5.9 5.898 5.905 5.905 0 0 1-5.897 5.899h-3.945v5.899h3.7c6.333 0 11.881-5.172 12.036-11.504C41.452 5.355 35.937-.16 29.2.004 22.868.158 17.696 5.706 17.696 12.04v12.823h5.899v-1.268l.002-5.899zm-7.746 0H2.972a2.95 2.95 0 0 0 0 5.899h12.879v-5.899z" mask="url(#b)"/></g></svg>