<svg xmlns="http://www.w3.org/2000/svg" width="121" height="27" viewBox="0 0 121 27"><title>C7AC8C44-8123-4169-9275-11737541E537</title><g fill="none" fill-rule="evenodd"><rect width="20.006" height="20.006" fill="#0ACC74" rx="9.576"/><path fill="#0ACC74" d="M120.154 15.863c0 2.195-1.772 3.994-3.966 3.994-1.876 0-3.385-1.349-3.888-2.882-.237-.688.319-1.402 1.006-1.561.713-.131 1.216.372 1.56 1.032.369.687.688.793 1.322.793a1.36 1.36 0 0 0 1.348-1.376c0-.74-.608-1.346-1.348-1.346a3.956 3.956 0 0 1-2.802-1.165c-.767-.74-1.163-1.746-1.163-2.802a3.96 3.96 0 0 1 3.965-3.967c1.851 0 3.543 1.269 3.807 2.75.133.714-.29 1.427-1.003 1.56-.716.16-1.322-.317-1.562-.979-.157-.423-.607-.713-1.242-.713-.74 0-1.35.609-1.35 1.349s.61 1.349 1.35 1.349c1.058 0 2.062.423 2.804 1.163a3.898 3.898 0 0 1 1.162 2.801m-8.96-7.984c0 .715-.582 1.322-1.322 1.322h-1.878v9.334c0 .713-.58 1.322-1.32 1.322-.715 0-1.296-.61-1.296-1.322V9.2h-1.904c-.714 0-1.296-.607-1.296-1.322 0-.714.582-1.296 1.296-1.296h1.904V1.296c0-.713.58-1.296 1.296-1.296.74 0 1.32.583 1.32 1.296v5.287h1.878c.74 0 1.323.582 1.323 1.296m-8.905 5.315v5.314a1.31 1.31 0 0 1-1.322 1.322 1.305 1.305 0 0 1-1.296-1.322v-5.314a4.018 4.018 0 1 0-8.038 0v5.314c0 .74-.58 1.322-1.322 1.322a1.305 1.305 0 0 1-1.296-1.322v-5.314a6.641 6.641 0 0 1 6.639-6.638 6.641 6.641 0 0 1 6.635 6.638m-17.396 5.34V7.88c0-.714.583-1.296 1.322-1.296.714 0 1.296.582 1.296 1.296v10.656c0 .74-.582 1.322-1.296 1.322a1.31 1.31 0 0 1-1.322-1.322m.397-14.967a1.344 1.344 0 0 1-.397-.923c0-.346.16-.689.397-.926.239-.24.582-.397.925-.397.343 0 .687.158.926.397.237.237.37.58.37.926 0 .343-.133.686-.37.923-.239.24-.583.372-.926.372a1.32 1.32 0 0 1-.925-.372m-12.553 9.626c0 2.193 1.798 4.018 4.02 4.018 2.22 0 4.018-1.825 4.018-4.018a4.018 4.018 0 1 0-8.038 0m-2.618 0a6.641 6.641 0 0 1 6.638-6.638 6.624 6.624 0 0 1 6.636 6.638c0 3.648-2.961 6.636-6.636 6.636-3.65 0-6.638-2.988-6.638-6.636m-12.183.104v.027c0 2.195 1.799 3.994 4.02 3.994a4.017 4.017 0 0 0 4.018-4.02c0-2.193-1.796-4.018-4.018-4.018a4.018 4.018 0 0 0-4.02 4.017m0 5.29v6.582c0 .716-.58 1.296-1.295 1.296-.74 0-1.323-.58-1.323-1.296V13.298c0-3.648 2.988-6.636 6.638-6.636 3.675 0 6.637 2.988 6.637 6.636a6.624 6.624 0 0 1-6.637 6.639 6.629 6.629 0 0 1-4.02-1.35m-6.846-.052V1.322c0-.715.582-1.295 1.322-1.295.714 0 1.296.58 1.296 1.295v17.213c0 .74-.582 1.322-1.296 1.322a1.31 1.31 0 0 1-1.322-1.322m-4.255 0V7.879c0-.714.582-1.296 1.322-1.296.713 0 1.296.582 1.296 1.296v10.656c0 .74-.583 1.322-1.296 1.322a1.31 1.31 0 0 1-1.322-1.322m.396-14.967a1.344 1.344 0 0 1-.396-.923c0-.346.159-.689.396-.926.24-.24.583-.397.926-.397.344 0 .687.158.926.397.237.237.37.58.37.926 0 .343-.133.686-.37.923a1.32 1.32 0 0 1-.926.372 1.32 1.32 0 0 1-.926-.372M34.68 13.194c0 2.193 1.798 4.018 4.02 4.018 2.219 0 4.018-1.825 4.018-4.018a4.018 4.018 0 1 0-8.038 0m-2.618 0A6.642 6.642 0 0 1 38.7 6.556a6.624 6.624 0 0 1 6.636 6.638c0 3.648-2.962 6.636-6.636 6.636-3.65 0-6.638-2.988-6.638-6.636m-4.122 5.34V1.323c0-.715.582-1.295 1.322-1.295.713 0 1.296.58 1.296 1.295v17.213c0 .74-.583 1.322-1.296 1.322a1.31 1.31 0 0 1-1.322-1.322"/><path fill="#F9FFE4" d="M10.689 11.932h3.687a.732.732 0 1 0 0-1.465H7.667v.003a2.933 2.933 0 0 0-2.829 3.162 2.94 2.94 0 0 0 2.67 2.685 2.933 2.933 0 0 0 3.177-2.772h.004V12.39H9.224V13.397c0 .808-.657 1.465-1.465 1.465a1.467 1.467 0 0 1-1.465-1.465c0-.8.646-1.453 1.444-1.464v-.001h2.951zm0-3.727V6.754 6.74c0-.808.657-1.465 1.465-1.465s1.465.657 1.465 1.465-.657 1.465-1.465 1.465h-.98V9.67h.92c1.572 0 2.95-1.284 2.989-2.857a2.933 2.933 0 0 0-3.002-3.002c-1.573.039-2.857 1.416-2.857 2.99V9.984h1.465v-1.78zm-1.923 0H5.567a.733.733 0 0 0 0 1.465h3.199V8.205z"/></g></svg>