<svg xmlns="http://www.w3.org/2000/svg" data-name="Layer 1" viewBox="0 0 332.64 334.09"><title>distrcit_b</title><path d="M164.62 80.13c-48.52 0-87.87 39.56-87.86 88.32s39.4 88.33 87.92 88.26 87.87-39.55 87.85-88.3-39.37-88.28-87.91-88.28m55.62 92.84c-4.61 21-29.8 18.8-29.8 18.8s2 31.58-25.25 31.89c-30 .13-24.69-30-25.65-32.13a47.25 47.25 0 01-8.41-.16 33.22 33.22 0 01-6.77-1.46 25 25 0 01-5.29-2.48 22 22 0 01-4-3.19 21.32 21.32 0 01-2.89-3.6 21.78 21.78 0 01-3.8-11 21.44 21.44 0 011.62-9.49 23.52 23.52 0 013.8-6.44 21.47 21.47 0 013.76-3.43 24.26 24.26 0 014.19-2.42 30.62 30.62 0 014.32-1.58 38.65 38.65 0 014.14-.91c1.21-.19 2.43-.33 3.65-.42.95-.06 1.9-.1 2.85-.09h2.13s-1.92-31.59 25.38-31.77c30 0 24.57 30.09 25.51 32.23 20.11-1.19 27.34 8.79 29.94 16.51a20.49 20.49 0 011 6.82 20.47 20.47 0 01-.43 4.32zM79.16 68.47a7.76 7.76 0 015.08-.37 10.23 10.23 0 013.85 1.83 17.66 17.66 0 012.95 2.72 16.18 16.18 0 013.85 7.46 8.76 8.76 0 01-3.18 8.71l-7.86 6.8-15.69-18.3 7.85-6.81a12.2 12.2 0 013.17-2m-4.59 8.82l10.26 12 3.52-3.05a5.07 5.07 0 001.46-5.93 12.43 12.43 0 00-2.41-4 11.35 11.35 0 00-4.56-3.52q-2.16-.74-4.76 1.51zM111.5 74.66l-4.34 2.47-11.91-21.01 4.34-2.47 11.91 21.01zM121.72 62.78a4.84 4.84 0 001.66 2c1.1.67 2.62.67 4.53 0a9.32 9.32 0 002.67-1.33 2.82 2.82 0 001.13-3.36 2.1 2.1 0 00-1.55-1.31 12.18 12.18 0 00-3.53 0l-2.64.3a15.86 15.86 0 01-5.59-.06 5.85 5.85 0 01-4-4.16 6.9 6.9 0 01.52-5.88c1.05-1.87 3-3.3 5.92-4.29a10.73 10.73 0 016.88-.22 7.23 7.23 0 014.59 4.66l-4.59 1.55a3.46 3.46 0 00-2.83-2.31 6.6 6.6 0 00-3 .41 5.68 5.68 0 00-2.76 1.77 2.45 2.45 0 00-.42 2.46 2 2 0 001.72 1.46 15.39 15.39 0 003.36-.09l4.33-.42a10.28 10.28 0 014.48.32 5.91 5.91 0 013.64 4 7 7 0 01-.66 6c-1.14 1.94-3.18 3.4-6.12 4.4a11.79 11.79 0 01-7.77.39 7.12 7.12 0 01-4.47-4.74zM162.62 36.37l.39 4.27-7.17.65 1.82 19.82-5.04.47-1.82-19.82-7.2.66-.39-4.26 19.41-1.79zM191.73 40.46a6 6 0 012 2 7.17 7.17 0 01.89 2.2 6.33 6.33 0 01.06 2.58 7 7 0 01-1.36 3.22 4.86 4.86 0 01-3.17 1.89 4.49 4.49 0 012 2.24 8 8 0 01.12 3.84l-.25 1.6a12.3 12.3 0 00-.19 2.26 1.94 1.94 0 00.71 1.49l-.09.6-5.49-.83c-.07-.55-.11-1-.13-1.33a14.89 14.89 0 01.09-2.1l.31-2.22a4.52 4.52 0 00-.32-3.17 4 4 0 00-2.71-1.2l-4.84-.75-1.42 9.37-4.86-.74 3.62-23.92 11.37 1.74a11.16 11.16 0 013.66 1.19m-10.8 2l-1 6.41 5.35.82a5.42 5.42 0 002.45 0 2.69 2.69 0 001.82-2.46 3 3 0 00-.92-3.12 4.8 4.8 0 00-2.23-.78zM206.29 69.11l-4.7-1.7 8.17-22.75 4.71 1.72-8.18 22.73zM228.63 56.48a9.93 9.93 0 017.88 1.28c3.43 2.1 5.25 4.75 5.46 8a8.64 8.64 0 01-.92 4.71l-4.3-2.61a7.08 7.08 0 00.3-2.89 5 5 0 00-2.6-3.42 4.86 4.86 0 00-4.77-.3 10.83 10.83 0 00-4.57 4.59c-1.39 2.3-2 4.33-1.73 6a5.15 5.15 0 002.51 3.9 4.72 4.72 0 004.27.57 7.58 7.58 0 002.52-1.76l4.29 2.6a10.93 10.93 0 01-6.15 3.79 9.53 9.53 0 01-7.1-1.42 10.31 10.31 0 01-5.2-7.06c-.51-2.93.22-6.07 2.25-9.41q3.25-5.43 7.86-6.62M269.64 84.07l-3.02 3.02-5.07-5.15-14.05 14.05-3.56-3.61 14.05-14.04-5.11-5.15 3.02-3.02 13.74 13.9zM157.9 334.08q-6-.29-12-1l1.43-11.7q5.52.68 11.12 1zm24-.49l-1.08-11.75q5.61-.51 11.08-1.42l1.93 11.62q-5.91 1-11.93 1.55m-59.48-5.2c-3.89-1.05-7.72-2.27-11.49-3.62l3.94-11.09q5.25 1.86 10.63 3.34zm94.72-2l-3.58-11.23c3.58-1.14 7.07-2.41 10.52-3.79l4.35 10.92q-5.55 2.25-11.29 4.1m-128.2-11.27c-3.57-1.89-7-3.89-10.44-6l6.22-10q4.74 3 9.68 5.59zm161-3.41l-5.91-10.17q4.85-2.86 9.45-6l6.62 9.74c-3.31 2.26-6.68 4.4-10.16 6.44M59.16 294.91q-4.59-3.9-8.89-8.11l8.19-8.44c2.67 2.6 5.42 5.13 8.27 7.55zm219.8-4.63l-7.94-8.67q4.13-3.81 7.94-7.89l8.5 8.06c-2.75 2.92-5.59 5.75-8.55 8.48M34.29 268.78q-3.66-4.78-7-9.85l9.87-6.45q3.07 4.68 6.46 9.14zm268.32-5.68l-9.59-6.76q3.2-4.62 6.09-9.42l10.06 6c-2.07 3.46-4.25 6.82-6.56 10.13m-287-25.19c-1.7-3.64-3.26-7.34-4.69-11.13l11-4.18a141.8 141.8 0 004.35 10.3zm304.37-6.47l-10.82-4.47q2.15-5.17 3.91-10.51l11.14 3.73q-1.92 5.75-4.24 11.32m-316-27.7c-.88-3.9-1.61-7.87-2.2-11.88l11.6-1.73q.84 5.58 2 11zm326.19-6.98l-11.56-2.07q1-5.49 1.59-11.12l11.66 1.25c-.42 4-1 8-1.69 11.94M2.99 167.66l-3-.17c0-4.36.13-8.38.43-12.36l11.69.84c-.26 3.71-.4 7.45-.4 11.21zm317.93-6.45c-.14-3.76-.42-7.49-.81-11.2l11.65-1.23q.64 6 .88 12zM15.3 133.78l-11.46-2.52q1.29-5.92 3-11.7l11.25 3.35q-1.57 5.35-2.78 10.87m300.78-5.82q-1.39-5.44-3.19-10.73l11.11-3.79c1.28 3.8 2.42 7.66 3.45 11.57zm-290.12-26l-10.65-5c1.68-3.66 3.51-7.25 5.45-10.76l10.26 5.71c-1.8 3.27-3.5 6.6-5.06 10m278.28-5.34a160.84 160.84 0 00-5.46-9.81l10-6.1q3.09 5.13 5.85 10.51zm-261-23.45l-9.34-7.13c2.43-3.21 5-6.31 7.61-9.33l8.81 7.78q-3.69 4.22-7.08 8.68m242.69-4.64c-2.37-2.9-4.86-5.7-7.41-8.41l8.5-8.12c2.76 2.92 5.4 5.93 8 9zM66.16 48.78l-7.61-9q4.57-3.92 9.43-7.49l6.93 9.52q-4.51 3.3-8.75 6.95M261.97 45q-4.38-3.47-9-6.61l6.57-9.77c3.32 2.27 6.57 4.64 9.7 7.13zM93.83 29.91l-5.53-10.4c3.52-1.88 7.13-3.65 10.8-5.28L103.85 25c-3.41 1.52-6.76 3.16-10 4.91m139.82-2.7c-3.34-1.62-6.74-3.13-10.23-4.51l4.33-11c3.74 1.49 7.42 3.1 11 4.86zm-108.81-9.76L121.72 6.1c3.83-1.08 7.73-2 11.67-2.81l2.32 11.55c-3.66.74-7.28 1.62-10.85 2.61m77.3-1.49c-3.6-.85-7.25-1.59-10.94-2.19l1.87-11.63q6 1 11.78 2.35zm-44.32-4L157.16.25q4.58-.25 9.16-.25h2.85l-.21 11.78h-2.63c-2.84 0-5.7.07-8.51.23M104.58 267.7l-10.14-7-2.83 4.08 9.3 6.46-2.32 3.34-9.3-6.46-3.44 4.95 10.6 7.36-2.4 3.46-14.51-10.11 13.36-19.24 14 9.75z"/><path d="M94.1 284.1l-14.8-10.27 13.55-19.53 14.33 10-2.56 3.69-10.13-7-2.64 3.8 9.3 6.45-2.52 3.54-9.3-6.46-3.24 4.66 10.61 7.36zm-14.32-10.32l14.23 9.87 2.2-3.17-10.6-7.36 3.63-5.23 9.31 6.46 2.12-3.06-9.31-6.51 3-4.37 10.13 7 2.17-3.12-13.72-9.51zM127.16 273.88a7.66 7.66 0 012.62 4.21 10.25 10.25 0 01.18 4.12 18.16 18.16 0 01-1 3.78 15.63 15.63 0 01-4.61 6.69 8.42 8.42 0 01-8.87 1.23l-9.32-3.65 8.51-21.82 9.36 3.65a12.24 12.24 0 013.13 1.79zm-9.61.07L112 288.19l4.16 1.59a4.85 4.85 0 005.72-1.43 12 12 0 002.32-3.89 11 11 0 00.95-5.52c-.23-1.46-1.37-2.59-3.44-3.4z"/><path d="M119.07 294.78a10.07 10.07 0 01-3.65-.74l-9.52-3.71.06-.16 8.57-22 .16.07 9.37 3.65a12.55 12.55 0 013.22 1.81 8 8 0 012.68 4.3 10.64 10.64 0 01.18 4.2 19.1 19.1 0 01-1 3.81 15.92 15.92 0 01-4.67 6.77 8.53 8.53 0 01-5.4 2zm-12.72-4.65l9.2 3.59a8.31 8.31 0 008.7-1.2 15.55 15.55 0 004.56-6.63 18.31 18.31 0 001-3.73 10.31 10.31 0 00-.18-4.06 7.57 7.57 0 00-2.56-4.12 12.14 12.14 0 00-3.13-1.76l-9.2-3.58zm11.82.23a5.46 5.46 0 01-2-.41l-4.35-1.69.06-.17 5.62-14.4 4.35 1.7c2.12.83 3.32 2 3.55 3.53a11.18 11.18 0 01-1 5.61 12.31 12.31 0 01-2.35 4 5.25 5.25 0 01-3.89 1.86zm-5.94-2.3l4 1.57a4.66 4.66 0 005.54-1.39 12.11 12.11 0 002.28-3.83 10.84 10.84 0 00.94-5.43c-.22-1.39-1.34-2.49-3.33-3.27l-4-1.57zM141.36 301.02l-4.75-.9 4.34-23 4.76.89z"/><path d="M141.5 301.22l-5.1-1v-.17l4.37-23.19 5.1 1v.17zm-4.69-1.24l4.42.83 4.28-22.67-4.42-.83zM172.81 282.17a6 6 0 011 3.59 5.22 5.22 0 01-1.13 3.43 5.59 5.59 0 01-1.8 1.31 5.2 5.2 0 012.66 2.11 6.22 6.22 0 01.85 3.44 6.86 6.86 0 01-1.1 3.72 6.39 6.39 0 01-4.33 2.95 15.78 15.78 0 01-3.3.26l-10.5-.2.39-23.41 11.26.18q4.26.16 6 2.62zm-12.83 10.41l-.1 6.24 5.66.09a5.55 5.55 0 002.37-.37 3 3 0 001.58-2.9 2.51 2.51 0 00-1.45-2.53 5.78 5.78 0 00-2.32-.44zm.15-9l-.09 5.16 5.67.09a4.57 4.57 0 002.47-.54 2.21 2.21 0 001-2 2.11 2.11 0 00-1.22-2.18 9 9 0 00-2.75-.41z"/><path d="M165.99 303.16h-.33l-10.67-.18.38-23.76 11.44.19c2.89.09 5 1 6.14 2.66a6.19 6.19 0 011 3.7 5.46 5.46 0 01-1.18 3.54 5.29 5.29 0 01-1.52 1.17 5.23 5.23 0 012.39 2 6.36 6.36 0 01.88 3.54 7.12 7.12 0 01-1.12 3.81 6.68 6.68 0 01-1.73 1.86 6.61 6.61 0 01-2.72 1.16 15.89 15.89 0 01-2.96.31zm-10.65-.52l10.33.17a16 16 0 003.26-.26 6.3 6.3 0 002.59-1.1 6.57 6.57 0 001.64-1.77 6.72 6.72 0 001.07-3.63 6 6 0 00-.82-3.35 5 5 0 00-2.58-2l-.37-.14.36-.18a5.37 5.37 0 001.75-1.26 5.09 5.09 0 001.09-3.32 5.87 5.87 0 00-1-3.49c-1.12-1.58-3.09-2.43-5.87-2.52l-11.08-.18zm10.37-3.55h-.17l-5.84-.1.11-6.59 5.91.1a6 6 0 012.4.45 2.69 2.69 0 011.54 2.69 3.15 3.15 0 01-1.68 3.06 5.48 5.48 0 01-2.27.39zm-5.65-.44l5.48.09a5.18 5.18 0 002.29-.36 2.75 2.75 0 001.48-2.74 2.35 2.35 0 00-1.34-2.38 5.73 5.73 0 00-2.26-.41l-5.55-.07zm5.77-9.68h-.12l-5.84-.1.09-5.51 5.24.09a8.81 8.81 0 012.81.42 2.26 2.26 0 011.33 2.34 2.38 2.38 0 01-1.07 2.19 4.69 4.69 0 01-2.44.57zm-5.61-.44l5.49.09a4.68 4.68 0 002.39-.52 2 2 0 00.89-1.89 1.93 1.93 0 00-1.11-2 8.81 8.81 0 00-2.72-.43l-4.9-.08zM182.64 278.38l4.75-1.07 4.23 18.74 11.35-2.57.93 4.11-16.11 3.63z"/><path d="M187.66 301.43v-.17l-5.19-23 5.09-1.15v.17l4.19 18.57 11.35-2.57 1 4.45h-.17zm-4.82-22.92l5.09 22.51 15.76-3.56-.85-3.77-11.35 2.56v-.17l-4.19-18.57zM223.4 268.47l-11.14 5.31 2.14 4.5 10.22-4.87 1.75 3.67-10.21 4.85 2.59 5.44 11.64-5.59 1.81 3.81-16 7.58-10.04-21.11 15.44-7.34z"/><path d="M216.16 293.45l-.08-.16-10.13-21.31 15.75-7.49 1.93 4.06-11.14 5.3 2 4.17 10.23-4.86 1.89 4-10.22 4.86 2.43 5.12 11.66-5.54 2 4.12-.16.07zm-9.75-21.3l9.91 20.83 15.64-7.44-1.66-3.49-11.65 5.55-2.74-5.76 10.25-4.86-1.6-3.36-10.22 4.87-2.29-4.81 11.11-5.3-1.63-3.43zM241.88 270.5a4.86 4.86 0 002.19 1.33q1.84.38 4.15-1.45a9.07 9.07 0 002-2.08 2.73 2.73 0 00-.06-3.42 2 2 0 00-1.92-.77 10.93 10.93 0 00-3.21 1.15l-2.33 1.13a15.94 15.94 0 01-5.12 1.78 5.72 5.72 0 01-5-2.51 6.73 6.73 0 01-1.45-5.53q.51-3.06 4-5.84a10.43 10.43 0 016.21-2.42 7 7 0 015.7 2.75l-3.66 2.91a3.37 3.37 0 00-3.34-1.19 6.39 6.39 0 00-2.64 1.35 5.48 5.48 0 00-1.94 2.51 2.39 2.39 0 00.42 2.38 2 2 0 002.06.77 14.28 14.28 0 003-1.17l3.81-1.78a10.28 10.28 0 014.22-1.18 5.75 5.75 0 014.6 2.45 6.74 6.74 0 011.38 5.71q-.61 3.19-4.15 6a11.32 11.32 0 01-7 2.87 6.91 6.91 0 01-5.63-2.86z"/><path d="M243.86 276.42a7.12 7.12 0 0 1-5.76-2.92l-.11-.14 3.9-3.09.11.1a4.65 4.65 0 0 0 2.1 1.29c1.18.24 2.52-.24 4-1.42a8.68 8.68 0 0 0 2-2 2.54 2.54 0 0 0-.05-3.22 1.83 1.83 0 0 0-1.76-.71 11.16 11.16 0 0 0-3.16 1.14l-2.32 1.13a15.7 15.7 0 0 1-5.19 1.79 6 6 0 0 1-5.14-2.57 6.94 6.94 0 0 1-1.48-5.67c.35-2.07 1.72-4.08 4.08-5.94a10.49 10.49 0 0 1 6.3-2.46 7.19 7.19 0 0 1 5.85 2.8l.11.14-3.96 3.11-.11-.12a3.17 3.17 0 0 0-3.18-1.13 6.37 6.37 0 0 0-2.56 1.31 5.45 5.45 0 0 0-1.89 2.44 2.24 2.24 0 0 0 .4 2.22 1.85 1.85 0 0 0 1.89.7 14.6 14.6 0 0 0 3-1.16l3.81-1.78a10.54 10.54 0 0 1 4.29-1.19 5.93 5.93 0 0 1 4.74 2.51 6.94 6.94 0 0 1 1.41 5.85 10.61 10.61 0 0 1-4.21 6.11 11.57 11.57 0 0 1-7.08 2.9zm-5.38-3a6.74 6.74 0 0 0 5.38 2.65 11.27 11.27 0 0 0 6.87-2.82c2.31-1.84 3.68-3.82 4.08-5.9a6.59 6.59 0 0 0-1.34-5.57 5.61 5.61 0 0 0-4.47-2.38 10.41 10.41 0 0 0-4.15 1.15l-3.8 1.79a14.22 14.22 0 0 1-3.08 1.18 2.15 2.15 0 0 1-2.21-.83 2.57 2.57 0 0 1-.46-2.54 5.74 5.74 0 0 1 2-2.6 6.78 6.78 0 0 1 2.71-1.38 3.51 3.51 0 0 1 3.39 1.12l3.4-2.7a6.83 6.83 0 0 0-5.23-2.55h-.22a10.16 10.16 0 0 0-6.1 2.38c-2.28 1.81-3.61 3.74-4 5.73a6.63 6.63 0 0 0 1.41 5.39 5.59 5.59 0 0 0 4.85 2.44 15.8 15.8 0 0 0 5.06-1.75l2.32-1.14a11.44 11.44 0 0 1 3.27-1.17 2.21 2.21 0 0 1 2.08.84 2.88 2.88 0 0 1 .06 3.62 9 9 0 0 1-2 2.12c-1.57 1.25-3 1.75-4.29 1.48a4.69 4.69 0 0 1-2.16-1.26z"/></svg>