<svg xmlns="http://www.w3.org/2000/svg" width="68" height="61" viewBox="0 0 68 61"><g fill="#FFF"><path d="M9.008 42.344L3.27 36.607a1.16 1.16 0 0 1 0-1.64l9.836-9.836 6.558 6.558-1.09 1.088a1.157 1.157 0 0 0-.053.053l-4.109 4.109a1.157 1.157 0 0 0-.053.053l-5.352 5.352zm7.353-4.073l3.493-3.493h10.418v25.46H17.52a1.16 1.16 0 0 1-1.159-1.16V38.271zm39.415 20.807c0 .64-.519 1.16-1.16 1.16h-12.75v-25.46h13.911v24.3zm-16.23-24.3v25.46h-6.955v-25.46h6.955zm-18.242-4.729l-6.558-6.558 6.558-6.558 6.558 6.558-6.558 6.558zM32.781 5.458a1.16 1.16 0 0 1 1.64 0l5.739 5.736L29.5 21.852l-6.558-6.558 9.838-9.836zM19.904 3.96a2.319 2.319 0 0 1 3.859-.963l4.1 4.099-6.84 6.84a6.97 6.97 0 0 0-1.356-1.924 6.857 6.857 0 0 0-1.821-1.275l2.058-6.777zm-8.437 9.693a4.644 4.644 0 0 1 6.558 0 4.551 4.551 0 0 1 1.192 2.086l-5.664 5.665a4.566 4.566 0 0 1-2.086-1.192 4.645 4.645 0 0 1 0-6.56zM1.77 22.092l6.784-2.061a6.826 6.826 0 0 0 1.275 1.821 6.97 6.97 0 0 0 1.923 1.355l-6.84 6.84L.811 25.95a2.299 2.299 0 0 1-.609-2.198 2.302 2.302 0 0 1 1.569-1.66zm60.962 2.253a1.16 1.16 0 0 0 2.318 0 5.55 5.55 0 0 0-2.805-5.12 7.072 7.072 0 0 0-7.112.677c-3.478 2.319-9.117 6.825-9.356 7.015a1.16 1.16 0 0 0 1.45 1.81c.056-.046 5.796-4.636 9.192-6.896a4.753 4.753 0 0 1 4.731-.562 3.227 3.227 0 0 1 1.582 3.076z"/><path d="M64.563 11.11a7.072 7.072 0 0 0-7.112.677c-3.478 2.319-9.116 6.825-9.355 7.015a1.16 1.16 0 1 0 1.449 1.81c.057-.045 5.796-4.636 9.193-6.896a4.753 4.753 0 0 1 4.73-.562 3.227 3.227 0 0 1 1.582 3.076 1.16 1.16 0 0 0 2.319 0 5.55 5.55 0 0 0-2.806-5.12zM47.661 2.319c2.498 0 4.219.818 4.72 2.245.602 1.72-.624 4.122-3.13 6.123-3.246 2.596-6.956 5.797-6.989 5.824a1.16 1.16 0 1 0 1.514 1.756c.038-.032 3.71-3.201 6.924-5.769 3.331-2.666 4.81-6 3.863-8.701C53.722 1.384 51.203 0 47.661 0a1.16 1.16 0 0 0 0 2.319z"/><circle cx="43.024" cy="23.185" r="1.159"/><circle cx="37.228" cy="24.345" r="1.159"/><circle cx="59.254" cy="26.663" r="1.159"/><circle cx="60.413" cy="5.796" r="1.159"/><circle cx="40.706" cy="28.982" r="1.159"/></g></svg>