<svg xmlns="http://www.w3.org/2000/svg" width="67" height="43" viewBox="0 0 67 43"><g fill="#FFF"><g transform="translate(0 3)"><path d="M26.95 23.498c-2.31 1.68-5.46 3.08-6.65 3.08-.56-.63-1.4-2.31-1.89-3.29-1.4-2.73-2.45-4.83-4.69-5.32l-3.43-.77c-3.57-.91-5.25-1.26-6.86.14C1.26 19.228 0 31.618 0 38.478c0 .63.49 1.05 1.12 1.05 2.66 0 8.68.14 11.06.14.56 0 1.05-.42 1.12-.98l1.33-9.87c.98 1.54 2.1 2.8 3.57 3.36.63.21 1.26.28 1.89.28 3.92 0 8.68-3.08 10.22-4.13 1.4-.98 1.68-2.8.77-4.2-.91-1.19-2.73-1.54-4.13-.63z"/><circle cx="11.688" cy="8.33" r="6.93" transform="rotate(-77.349 11.688 8.33)"/><path d="M63.14 17.408c-1.61-1.4-3.29-1.12-6.86-.14l-3.43.77c-2.17.49-3.29 2.59-4.69 5.32-.49.98-1.4 2.73-1.96 3.36-2.03.56-6.09.84-8.33.84-1.68 0-3.01 1.4-3.01 3.01 0 1.68 1.33 3.01 3.01 3.01.7 0 7-.07 10.36-1.19 1.54-.49 2.66-1.75 3.57-3.36l1.33 9.87c.07.56.56.98 1.12.98 2.38-.07 8.4-.14 11.06-.14.63 0 1.12-.49 1.12-1.05.21-7-1.12-19.39-3.29-21.28z"/><circle cx="54.955" cy="8.381" r="6.93" transform="rotate(-12.651 54.955 8.381)"/></g><path d="M27.383 4.872a1.02 1.02 0 0 0 0 1.442c2.679 2.681 2.677 7.046-.004 9.729a1.02 1.02 0 0 0 1.442 1.442c3.476-3.478 3.478-9.136.004-12.613a1.02 1.02 0 0 0-1.442 0zm-4.046 2.926a1.02 1.02 0 0 0 0 1.442 2.746 2.746 0 0 1-.001 3.878 1.02 1.02 0 0 0 1.443 1.441 4.789 4.789 0 0 0 0-6.76 1.02 1.02 0 0 0-1.442-.001z"/><path d="M32.907.354a1.02 1.02 0 1 0-1.443 1.442c5.168 5.172 5.166 13.589-.005 18.763a1.02 1.02 0 0 0 1.442 1.442c5.967-5.97 5.969-15.68.006-21.647z"/></g></svg>