<svg xmlns="http://www.w3.org/2000/svg" xmlns:xlink="http://www.w3.org/1999/xlink" width="107" height="107" viewBox="0 0 107 107">
    <defs>
        <path id="a" d="M0 0h106.166v106.104H0z"/>
        <linearGradient id="b" x1="0%" y1="50%" y2="50%">
            <stop offset="0%" stop-color="#18B35B"/>
            <stop offset="100%" stop-color="#8FC640"/>
        </linearGradient>
        <path id="d" d="M0 106.104h106.166V0H0z"/>
    </defs>
    <g fill="none" fill-rule="evenodd">
        <mask id="c" fill="#fff">
            <use xlink:href="#a"/>
        </mask>
        <path fill="url(#b)" d="M53.145 106.104c29.244 0 53.021-23.838 53.021-53.083C106.166 23.777 82.389 0 53.145 0 23.838 0 0 23.777 0 52.959v53.083h52.591c.185 0 .369.062.554.062" mask="url(#c)"/>
        <mask id="e" fill="#fff">
            <use xlink:href="#d"/>
        </mask>
        <path fill="#FEFEFE" d="M27.109 83.055h49.566V51.067H27.109v31.988zm51.066 3H25.609a1.5 1.5 0 0 1-1.5-1.5V49.568a1.5 1.5 0 0 1 1.5-1.5h52.566a1.5 1.5 0 0 1 1.5 1.5v34.987a1.5 1.5 0 0 1-1.5 1.5z" mask="url(#e)"/>
        <path fill="#58B855" d="M71.082 33.59L17.546 54.192 13.309 43.18l53.535-20.602z" mask="url(#e)"/>
        <path fill="#58B855" d="M17.832 45.19l1.723 4.48 47.003-18.09-1.723-4.478L17.832 45.19zm-.287 12.502a3.498 3.498 0 0 1-3.266-2.243l-4.237-11.012a3.5 3.5 0 0 1 2.01-4.523l53.536-20.602a3.501 3.501 0 0 1 4.523 2.009l4.237 11.011a3.5 3.5 0 0 1-2.009 4.524L18.803 57.46a3.504 3.504 0 0 1-1.258.233z" mask="url(#e)"/>
        <path fill="#FEFEFE" d="M15.247 44.042l3.16 8.212 50.736-19.526-3.16-8.211-50.736 19.525zm2.298 11.65a1.498 1.498 0 0 1-1.4-.962L11.909 43.72a1.499 1.499 0 0 1 .861-1.938l53.536-20.602a1.498 1.498 0 0 1 1.939.86l4.236 11.012a1.499 1.499 0 0 1-.861 1.938L18.084 55.593c-.173.067-.356.1-.539.1zM45.158 84.555h12.184V49.567H45.158z" mask="url(#e)"/>
        <path fill="#FEFEFE" d="M46.658 83.055h9.184V51.067h-9.184v31.988zm10.684 3H45.158a1.5 1.5 0 0 1-1.5-1.5V49.568a1.5 1.5 0 0 1 1.5-1.5h12.184a1.5 1.5 0 0 1 1.5 1.5v34.987a1.5 1.5 0 0 1-1.5 1.5zM50.994 41.32l-13.361 5.143-4.238-11.012 13.362-5.142z" mask="url(#e)"/>
        <path fill="#FEFEFE" d="M35.333 36.313l3.16 8.21 10.562-4.065-3.16-8.21-10.562 4.065zm2.3 11.65a1.501 1.501 0 0 1-1.4-.962l-4.239-11.01a1.503 1.503 0 0 1 .861-1.94l13.363-5.142a1.495 1.495 0 0 1 1.938.861l4.237 11.012a1.5 1.5 0 0 1-.86 1.938L38.17 47.861c-.177.069-.359.1-.538.1z" mask="url(#e)"/>
        <path fill="#FEFEFE" d="M44.303 18.358c-.633 0-1.267.116-1.874.35a5.212 5.212 0 0 0-2.909 2.762 5.173 5.173 0 0 0-.109 3.992l1.88 4.885 4.828-1.858c.038-.014.084-.03.131-.043a5.237 5.237 0 0 0 2.934-6.737 5.19 5.19 0 0 0-2.758-2.897 5.207 5.207 0 0 0-2.123-.454zM40.43 33.786a1.5 1.5 0 0 1-1.4-.962l-2.419-6.284a8.15 8.15 0 0 1 .17-6.291 8.196 8.196 0 0 1 4.57-4.341 8.167 8.167 0 0 1 6.293.162 8.176 8.176 0 0 1 4.34 4.56c1.63 4.239-.487 9.012-4.719 10.64-.043.016-.09.032-.137.046l-6.16 2.37c-.177.068-.359.1-.538.1z" mask="url(#e)"/>
        <path fill="#FEFEFE" d="M30.573 23.625c-.98 0-1.944.277-2.793.813a5.188 5.188 0 0 0-2.304 3.27 5.185 5.185 0 0 0 .678 3.941 5.2 5.2 0 0 0 3.273 2.307 5.185 5.185 0 0 0 3.885-.64.78.78 0 0 1 .07-.05l4.414-2.792L35 26.048a5.169 5.169 0 0 0-3.267-2.294 5.326 5.326 0 0 0-1.159-.129m.027 13.463c-.61 0-1.225-.068-1.835-.206a8.188 8.188 0 0 1-5.147-3.63 8.168 8.168 0 0 1-1.069-6.204 8.174 8.174 0 0 1 3.628-5.146 8.204 8.204 0 0 1 6.21-1.076 8.153 8.153 0 0 1 5.148 3.619l3.598 5.695a1.5 1.5 0 0 1-.467 2.069l-5.576 3.524c-.038.029-.08.058-.119.083h.001a8.152 8.152 0 0 1-4.372 1.272M76.519 37.183c0-3.728 3.038-6.759 6.766-6.759a6.765 6.765 0 0 1 6.758 6.76c0 3.734-3.031 6.772-6.751 6.772h-6.765v-6.703c0-.023-.008-.047-.008-.07" mask="url(#e)"/>
    </g>
</svg>
