<svg xmlns="http://www.w3.org/2000/svg" xmlns:xlink="http://www.w3.org/1999/xlink" width="107" height="107" viewBox="0 0 107 107">
    <defs>
        <path id="a" d="M0 0h106.166v106.104H0z"/>
        <linearGradient id="b" x1="0%" y1="50%" y2="50%">
            <stop offset="0%" stop-color="#18B35B"/>
            <stop offset="100%" stop-color="#8FC640"/>
        </linearGradient>
    </defs>
    <g fill="none" fill-rule="evenodd">
        <mask id="c" fill="#fff">
            <use xlink:href="#a"/>
        </mask>
        <path fill="url(#b)" d="M53.145 106.104c29.244 0 53.021-23.838 53.021-53.082C106.166 23.777 82.389 0 53.145 0 23.838 0 0 23.777 0 52.96v53.083h52.591c.185 0 .369.061.554.061" mask="url(#c)"/>
        <path fill="#58B855" d="M51.873 88.745l-7.234 3.242L17.753 32l7.234-3.241z" mask="url(#c)"/>
        <path fill="#FEFEFE" d="M19.737 32.755l25.657 57.25 4.496-2.016L24.233 30.74l-4.496 2.015zm24.901 60.731a1.497 1.497 0 0 1-1.368-.886L16.386 32.613a1.498 1.498 0 0 1 .755-1.982l7.234-3.242a1.497 1.497 0 0 1 1.982.756l26.884 59.986a1.5 1.5 0 0 1-.755 1.982l-7.234 3.242a1.49 1.49 0 0 1-.614.131z" mask="url(#c)"/>
        <path fill="#FEFEFE" d="M34.813 55.272l-4.145 1.857-6.825-15.23 4.145-1.856z" mask="url(#c)"/>
        <path fill="#FEFEFE" d="M25.826 42.656l5.598 12.49 1.407-.63-5.598-12.49-1.407.63zm4.843 15.974c-.573 0-1.12-.33-1.37-.887l-6.824-15.23a1.498 1.498 0 0 1 .755-1.982l4.145-1.856a1.5 1.5 0 0 1 1.982.755l6.825 15.229a1.502 1.502 0 0 1-.755 1.982l-4.145 1.857c-.2.09-.408.132-.613.132z" mask="url(#c)"/>
        <path fill="#58B855" d="M56.638 94.626H41.01a2.168 2.168 0 0 1-2.168-2.168V27.854c0-1.199.971-2.168 2.168-2.168h15.63c1.196 0 2.167.97 2.167 2.168v64.604a2.168 2.168 0 0 1-2.168 2.168" mask="url(#c)"/>
        <path fill="#58B855" d="M42.841 90.626h11.965v-60.94H42.841v60.94zm13.797 8H41.009a6.175 6.175 0 0 1-6.168-6.168V27.854a6.175 6.175 0 0 1 6.168-6.168h15.629a6.175 6.175 0 0 1 6.168 6.168v64.604a6.175 6.175 0 0 1-6.168 6.168z" mask="url(#c)"/>
        <path fill="#58B855" d="M56.638 94.626H41.01a2.168 2.168 0 0 1-2.168-2.168V27.854c0-1.199.971-2.168 2.168-2.168h15.63c1.196 0 2.167.97 2.167 2.168v64.604a2.168 2.168 0 0 1-2.168 2.168" mask="url(#c)"/>
        <path fill="#FEFEFE" d="M41.01 27.186a.67.67 0 0 0-.669.668v64.604c0 .369.3.668.668.668h15.63a.669.669 0 0 0 .667-.668V27.854a.67.67 0 0 0-.668-.668H41.01zm15.628 68.94H41.01a3.672 3.672 0 0 1-3.668-3.668V27.854a3.673 3.673 0 0 1 3.668-3.668h15.63a3.673 3.673 0 0 1 3.667 3.668v64.604a3.672 3.672 0 0 1-3.668 3.668z" mask="url(#c)"/>
        <path fill="#FEFEFE" d="M43.779 94.626h10.306V68.21H43.779z" mask="url(#c)"/>
        <path fill="#FEFEFE" d="M45.279 93.126h7.306V69.71h-7.306v23.416zm8.805 3H43.779a1.5 1.5 0 0 1-1.5-1.5V68.21a1.5 1.5 0 0 1 1.5-1.5h10.305a1.5 1.5 0 0 1 1.5 1.5v26.416a1.5 1.5 0 0 1-1.5 1.5z" mask="url(#c)"/>
        <path fill="#58B855" d="M40.552 25.44h16.856V15.317H40.552z" mask="url(#c)"/>
        <path fill="#FEFEFE" d="M42.052 23.94h13.856v-7.122H42.052v7.121zm15.356 3H40.552a1.5 1.5 0 0 1-1.5-1.5V15.317a1.5 1.5 0 0 1 1.5-1.5h16.856a1.5 1.5 0 0 1 1.5 1.5V25.44a1.5 1.5 0 0 1-1.5 1.5z" mask="url(#c)"/>
        <path fill="#58B855" d="M67.544 68.21c9.524 0 17.27-7.765 17.27-17.289 0-9.523-7.746-17.269-17.27-17.269-9.545 0-17.309 7.746-17.309 17.25v17.287h17.13c.06 0 .12.021.18.021" mask="url(#c)"/>
        <path fill="#58B855" d="M54.235 64.19h13.13c.111 0 .244.007.378.019 7.225-.106 13.07-6.026 13.07-13.287 0-7.316-5.953-13.27-13.269-13.27-7.339 0-13.309 5.944-13.309 13.25V64.19zm13.31 8.02c-.117 0-.257-.007-.396-.02H50.235a4 4 0 0 1-4-4V50.902c0-11.717 9.56-21.25 21.31-21.25 11.727 0 21.268 9.542 21.268 21.27 0 11.739-9.54 21.289-21.269 21.289z" mask="url(#c)"/>
        <path fill="#58B855" d="M67.544 68.21c9.524 0 17.27-7.765 17.27-17.289 0-9.523-7.746-17.269-17.27-17.269-9.545 0-17.309 7.746-17.309 17.25v17.287h17.13c.06 0 .12.021.18.021" mask="url(#c)"/>
        <path fill="#FEFEFE" d="M51.735 66.69h15.63c.061 0 .174.01.262.02 8.656-.044 15.686-7.11 15.686-15.788 0-8.695-7.074-15.77-15.769-15.77-8.717 0-15.809 7.066-15.809 15.75V66.69zm15.81 3.02a2.59 2.59 0 0 1-.265-.02H50.235a1.5 1.5 0 0 1-1.5-1.5V50.902c0-10.338 8.437-18.75 18.81-18.75 10.348 0 18.768 8.42 18.768 18.77 0 10.36-8.42 18.789-18.769 18.789z" mask="url(#c)"/>
        <path fill="#58B855" d="M67.195 42.972v15.919" mask="url(#c)"/>
        <path fill="#FEFEFE" d="M67.195 60.392a1.5 1.5 0 0 1-1.5-1.5v-15.92a1.5 1.5 0 1 1 3 0v15.92a1.5 1.5 0 0 1-1.5 1.5" mask="url(#c)"/>
        <path fill="#58B855" d="M59.461 50.931h16.126" mask="url(#c)"/>
        <path fill="#FEFEFE" d="M75.587 52.431H59.461a1.5 1.5 0 1 1 0-3h16.126a1.5 1.5 0 1 1 0 3" mask="url(#c)"/>
    </g>
</svg>
