<svg xmlns="http://www.w3.org/2000/svg" xmlns:xlink="http://www.w3.org/1999/xlink" width="107" height="107" viewBox="0 0 107 107">
    <defs>
        <path id="a" d="M0 0h106.166v106.104H0z"/>
        <linearGradient id="b" x1="0%" y1="50%" y2="50%">
            <stop offset="0%" stop-color="#18B35B"/>
            <stop offset="100%" stop-color="#8FC640"/>
        </linearGradient>
    </defs>
    <g fill="none" fill-rule="evenodd">
        <mask id="c" fill="#fff">
            <use xlink:href="#a"/>
        </mask>
        <path fill="url(#b)" d="M53.145 106.104c29.244 0 53.021-23.839 53.021-53.083S82.389 0 53.145 0C23.838 0 0 23.777 0 52.959v53.083h52.591c.185 0 .369.062.554.062" mask="url(#c)"/>
        <path fill="#FEFEFE" d="M40.556 21.05c-.511 0-.992.316-1.176.824L19.237 77.403c-.115.314-.1.652.042.955.14.3.39.53.704.644L45.068 88.1a1.25 1.25 0 0 0 1.6-.747l20.14-55.531a1.245 1.245 0 0 0-.746-1.598l-25.083-9.1a1.226 1.226 0 0 0-.423-.074m4.934 70.126c-.48 0-.968-.083-1.445-.255l-25.084-9.1a4.221 4.221 0 0 1-2.4-2.193 4.22 4.22 0 0 1-.145-3.25L36.559 20.85A4.256 4.256 0 0 1 42 18.304l25.084 9.1a4.217 4.217 0 0 1 2.399 2.193 4.218 4.218 0 0 1 .146 3.248l-20.142 55.53a4.26 4.26 0 0 1-3.998 2.8" mask="url(#c)"/>
        <path fill="#FEFEFE" d="M42.079 83.082l-16.584-6.016a2.076 2.076 0 0 1-1.244-2.66l17.056-47.019a2.077 2.077 0 0 1 2.66-1.244l16.584 6.014a2.077 2.077 0 0 1 1.244 2.662L44.739 81.838a2.074 2.074 0 0 1-2.66 1.244" mask="url(#c)"/>
        <path fill="#58B855" d="M70.642 64.454c8.92 0 16.173-7.271 16.173-16.19 0-8.921-7.253-16.173-16.173-16.173-8.939 0-16.211 7.252-16.211 16.153v16.19h16.042c.057 0 .112.02.169.02" mask="url(#c)"/>
        <path fill="#58B855" d="M59.431 59.435h11.042c.12 0 .253.006.39.017 6.06-.119 10.952-5.092 10.952-11.189 0-6.161-5.012-11.173-11.173-11.173-6.182 0-11.21 5.004-11.21 11.154v11.191zm11.211 10.019c-.127 0-.272-.007-.417-.019H54.431a5 5 0 0 1-5-5V48.244c0-11.664 9.515-21.154 21.211-21.154 11.675 0 21.173 9.498 21.173 21.173 0 11.685-9.498 21.191-21.173 21.191z" mask="url(#c)"/>
        <path fill="#58B855" d="M70.642 64.454c8.92 0 16.173-7.271 16.173-16.19 0-8.921-7.253-16.173-16.173-16.173-8.939 0-16.211 7.252-16.211 16.153v16.19h16.042c.057 0 .112.02.169.02" mask="url(#c)"/>
        <path fill="#FEFEFE" d="M55.931 62.935h14.542c.06 0 .165.008.25.019 8.052-.044 14.592-6.617 14.592-14.691 0-8.091-6.582-14.673-14.673-14.673-8.112 0-14.71 6.574-14.71 14.654v14.691zm14.711 3.019c-.06 0-.166-.009-.25-.019h-15.96a1.5 1.5 0 0 1-1.5-1.5V48.244c0-9.734 7.944-17.654 17.71-17.654 9.745 0 17.673 7.928 17.673 17.673 0 9.755-7.928 17.691-17.673 17.691z" mask="url(#c)"/>
        <path fill="#FEFEFE" d="M78.175 49.77H63.072a1.5 1.5 0 1 1 0-3h15.103a1.5 1.5 0 1 1 0 3" mask="url(#c)"/>
    </g>
</svg>
