<svg xmlns="http://www.w3.org/2000/svg" xmlns:xlink="http://www.w3.org/1999/xlink" width="129" height="29" viewBox="0 0 129 29">
    <defs>
        <path id="a" d="M0 0h101.055v30.484H0z"/>
    </defs>
    <g fill="none" fill-rule="evenodd">
        <g transform="translate(27)">
            <mask id="b" fill="#fff">
                <use xlink:href="#a"/>
            </mask>
            <path fill="#FFF" d="M96.708 21.76c-2.056 0-3.709-1.478-4.26-3.157-.26-.755.35-1.537 1.102-1.712.782-.143 1.333.408 1.71 1.132.404.752.754.869 1.448.869a1.49 1.49 0 0 0 1.478-1.508c0-.81-.667-1.476-1.478-1.476a4.336 4.336 0 0 1-3.07-1.276c-.84-.811-1.275-1.913-1.275-3.07a4.34 4.34 0 0 1 4.345-4.348c2.03 0 3.884 1.39 4.173 3.015.145.781-.318 1.563-1.1 1.709-.784.174-1.449-.348-1.711-1.073-.172-.464-.665-.782-1.362-.782-.81 0-1.478.667-1.478 1.478 0 .81.668 1.478 1.478 1.478 1.16 0 2.26.464 3.073 1.275a4.274 4.274 0 0 1 1.274 3.07c0 2.405-1.941 4.377-4.347 4.377zm-6.92-11.677h-2.059v10.228c0 .782-.635 1.45-1.446 1.45-.784 0-1.42-.668-1.42-1.45V10.083h-2.088c-.781 0-1.42-.665-1.42-1.449 0-.782.639-1.42 1.42-1.42h2.088V1.42c0-.782.636-1.42 1.42-1.42.81 0 1.446.638 1.446 1.42v5.794h2.059c.81 0 1.449.638 1.449 1.42 0 .784-.639 1.449-1.449 1.449zm-8.31 10.2c0 .81-.638 1.448-1.448 1.448a1.43 1.43 0 0 1-1.42-1.449V14.46a4.403 4.403 0 1 0-8.809 0v5.822c0 .811-.636 1.45-1.449 1.45a1.43 1.43 0 0 1-1.42-1.45V14.46c0-4.03 3.274-7.275 7.274-7.275 3.998 0 7.273 3.245 7.273 7.275v5.822zM62.416 8.633c0-.782.638-1.42 1.449-1.42.781 0 1.42.638 1.42 1.42v11.677c0 .811-.639 1.45-1.42 1.45-.811 0-1.45-.639-1.45-1.45V8.634zm0-5.736c0-.378.174-.754.434-1.015a1.474 1.474 0 0 1 1.015-.434c.376 0 .752.173 1.015.434.26.26.405.637.405 1.015 0 .377-.146.753-.405 1.013a1.45 1.45 0 0 1-1.015.407c-.376 0-.753-.145-1.015-.407a1.475 1.475 0 0 1-.434-1.013zm-8.916 15.964c2.432 0 4.403-2 4.403-4.402a4.404 4.404 0 1 0-8.809 0c0 2.402 1.971 4.402 4.406 4.402zm0-11.677a7.26 7.26 0 0 1 7.272 7.275c0 3.997-3.246 7.271-7.272 7.271-4 0-7.275-3.274-7.275-7.271 0-4.03 3.274-7.275 7.275-7.275zm-20.625 7.418c0 2.405 1.97 4.376 4.405 4.376a4.402 4.402 0 0 0 4.403-4.406c0-2.403-1.968-4.403-4.403-4.403a4.403 4.403 0 0 0-4.405 4.403v.03zm0 12.98a1.42 1.42 0 0 1-1.42 1.42c-.81 0-1.45-.635-1.45-1.42v-13.01c0-3.997 3.275-7.272 7.275-7.272 4.027 0 7.272 3.275 7.272 7.272a7.259 7.259 0 0 1-7.272 7.275 7.261 7.261 0 0 1-4.405-1.478v7.213zM25.37 1.45c0-.783.638-1.42 1.449-1.42.781 0 1.42.637 1.42 1.42v18.862c0 .811-.639 1.45-1.42 1.45-.81 0-1.45-.639-1.45-1.45V1.45zm-4.663 7.185c0-.782.638-1.42 1.449-1.42.781 0 1.42.638 1.42 1.42v11.677c0 .811-.639 1.45-1.42 1.45-.81 0-1.45-.639-1.45-1.45V8.634zm0-5.736c0-.378.174-.754.434-1.015a1.474 1.474 0 0 1 1.015-.434c.376 0 .753.173 1.015.434.26.26.405.637.405 1.015 0 .377-.146.753-.405 1.013a1.449 1.449 0 0 1-1.015.407c-.376 0-.753-.145-1.015-.407a1.474 1.474 0 0 1-.434-1.013zm-8.916 15.964c2.432 0 4.403-2 4.403-4.402a4.404 4.404 0 1 0-8.809 0c0 2.402 1.971 4.402 4.406 4.402zm0-11.677a7.26 7.26 0 0 1 7.272 7.275c0 3.997-3.245 7.271-7.272 7.271-4 0-7.274-3.274-7.274-7.271 0-4.03 3.274-7.275 7.274-7.275zM0 1.449C0 .666.638.03 1.45.03c.782 0 1.42.637 1.42 1.42v18.862c0 .811-.638 1.45-1.42 1.45-.81 0-1.449-.639-1.449-1.45V1.45z" mask="url(#b)"/>
        </g>
        <path fill="#FFF" d="M10.903 0c6.022 0 10.903 4.882 10.903 10.903 0 6.022-4.881 10.903-10.903 10.903H2a2 2 0 0 1-2-2v-8.903C0 4.882 4.882 0 10.903 0z"/>
        <path fill="#58B956" d="M10.855 13.115h3.683a.732.732 0 1 0 0-1.464H7.836v.003a2.93 2.93 0 0 0-2.827 3.16 2.937 2.937 0 0 0 2.669 2.682 2.93 2.93 0 0 0 3.173-2.77h.004v-1.153H9.39V14.58c0 .807-.657 1.463-1.464 1.463a1.465 1.465 0 0 1-1.463-1.463c0-.8.645-1.452 1.443-1.463v-.002H9.39l1.464.001zm0-3.724v-1.45-.014c0-.807.656-1.463 1.464-1.463.807 0 1.463.656 1.463 1.463s-.656 1.464-1.463 1.464h-.979v1.464h.918c1.572 0 2.949-1.284 2.987-2.855a2.93 2.93 0 0 0-3-3c-1.57.04-2.854 1.416-2.854 2.988v3.182h1.464V9.39zm-1.922 0H5.738a.732.732 0 0 0 0 1.464h3.195V9.39z"/>
    </g>
</svg>
