<svg id="Layer_1" data-name="Layer 1" xmlns="http://www.w3.org/2000/svg" viewBox="0 0 449.07 294.58"><defs><style>.cls-1{fill:#231f20;}</style></defs><title>mb</title><path class="cls-1" d="M484,235.33a.34.34,0,0,1-.12-.39c7.4-20.39,5.73-54.31-2.07-72.23-9.69-22.27-43.76-67.27-58-85.58l-1.58-2c-7.3-9.47-12.14-15.7-25.14-15.36a1377.22,1377.22,0,0,0-324.43,44,21,21,0,0,0-9.64,5.54c-7.17,7.2-29.93,58.25-12.46,118.09,4.74,16.26,12,35.66,14.28,41.57a42.74,42.74,0,0,0-1.76,32.45c7.94,22.67,33.29,34.43,56.62,26.27a46.13,46.13,0,0,0,9.37-4.53,56.57,56.57,0,0,0,50.18,31.16c34.08,0,55.5-29.1,55.87-52.75,29.68-4.77,60.33-8.4,90.38-10.87,7,22.12,28.39,38.36,53,38.36,27.81,0,48.35-19.28,54.26-42.19,9.69.14,28.5.62,28.5.62a30.44,30.44,0,0,0,22.14-8.36,30.87,30.87,0,0,0,9.73-21.81C493.41,250.06,491.19,241,484,235.33Zm-112.13-157c14.65-2.26,32.19.73,40.18,14,6,9.94,3,20.07-6.84,25.73-.2.12-.57.13-.52-.25.33-2.54,1.2-12.58-5.63-14.3-7.82-2-14.74,5.91-14.74,14.48a14.47,14.47,0,0,0,15,14.71c10.51,0,20.37-7.28,24.17-18.87a.5.5,0,0,1,1,.1,66.22,66.22,0,0,1-.27,14.6c-2.42,15.63-11.19,33-35,39-16.81,4.27-48.43-5.84-48.43-43.24C340.78,94.05,357.21,80.59,371.89,78.32Zm-72.13,5.25c13.07-1.22,22.83-1.92,35.95-2.74a.21.21,0,0,1,.21.29C316.33,132.84,342.84,165.48,359,177a.32.32,0,0,1-.05.56c-12.91,5.73-30.25,9.9-49.17,11.67a.29.29,0,0,1-.3-.38c12.7-38.74-2.8-87.67-10-104.86A.27.27,0,0,1,299.76,83.57ZM229.7,102.31c5.26-8.11,14.22-14.4,29-16,24.54-2.59,34.5,5.12,38.75,21.4,4.15,15.91-17.37,26.7-21.65,28.67a.19.19,0,0,1-.23-.28c2.3-3.49,1-12.84-6-13.46-5.48-.49-13.81,2.27-12.33,22.6s14.69,26.57,20.89,26.69c4.81.09,11.43-3.54,9-12.28-2.19-7.82-10.25-.13-11.92,1.58a.36.36,0,0,1-.56-.06c-11.46-17.54,18.86-18.36,25.2-27.76a.52.52,0,0,1,.94.16c7.78,30,1.9,45.91-4.55,56.26a.44.44,0,0,1-.37.21c-6.73.31-36.66.92-45.14,1.16a.4.4,0,0,1-.39-.27c-4.14-11.4-17.68-24.64-23.1-38.9C217.24,125.77,225.23,109.21,229.7,102.31Zm-56.56-1.68c6.73-1.28,30.85-5.14,45.26-7.41a.47.47,0,0,1,.51.61C198,154,236,178.3,238.66,191a.47.47,0,0,1-.45.56c-10.69.27-15.12.61-24.6,1.5a.49.49,0,0,1-.53-.39c-2-8.71-6.19-28.63-15-23.53-5.59,3.25-.86,18.29,3.39,24.76a.27.27,0,0,1-.18.41c-7.34,1-16.12,2.31-22.4,3.77C175,170.3,155.53,158.48,173.14,100.63ZM68.27,221.08c-15-56.14,6.11-95.16,8.38-98.8a.81.81,0,0,1,.48-.35c12.41-3.22,26-6.43,38.44-9.3a.3.3,0,0,1,.37.33c-2.31,19.1,2.2,43.7,3.2,48.77a.33.33,0,0,0,.62.08c8.17-16.62,8.25-39.17,7.44-51.5a.32.32,0,0,1,.25-.32c10.8-2.37,20.73-4.48,31.55-6.59a.52.52,0,0,1,.6.62c-13.77,64.42,6.54,74.67,9.41,96a.53.53,0,0,1-.38.57c-14.62,3.89-23.74,7.83-34.57,12.87a.34.34,0,0,1-.48-.33c1.19-17,.76-39.14,1-42.53,0-.64-.38-.46-.56-.27-10.53,11.2-12.45,42-12.72,47.76a.31.31,0,0,1-.57.15c-5.86-8.9-15.28-34.39-17.36-40.12a.33.33,0,0,0-.64.06c-3.49,20.3-1.17,41.26,4.85,49.85a.42.42,0,0,1-.1.58A223.64,223.64,0,0,0,79,251.69a.4.4,0,0,1-.65-.15C75.17,242.51,71.25,232.18,68.27,221.08Zm47.81,76c8.33.89,16.6,7.31,16.6,7.31s-14.39,2.88-21.83-3.21C109,310.61,97,317.28,97,317.28s1.34-10.06,7.22-16c-10.56,7.59-26.15,3-26.15,3s10.5-9.27,22.46-8.22c-16.21-4.68-26.71-18.6-26.71-18.6s18.53,3.17,28.06,11.06c-9.26-15.85-7.26-33.09-7.26-33.09s12.23,12.23,15.13,30.36c3-14.25,15.22-26.8,15.22-26.8s1.54,15.63-9.24,31.47c8.57-8.41,23.12-8.4,23.12-8.4S128.4,296.22,116.08,297.09Zm72.79,37.33c-19.39,4.75-37.3-5.15-45.75-24.66a.67.67,0,0,1,0-.63,42.87,42.87,0,0,0-31-65.79.48.48,0,0,1-.24-.86c14.14-11.23,39.35-24.55,54.81-25.93,16.29-1.45,26.71,3.14,29.86,15.18,2.05,7.81-.25,15.87-8.58,21.9,0,0,24.11,5.29,28.56,30.37C221.08,309.61,208.15,329.69,188.87,334.42Zm78.79-68c-2.76,7.79-8.85,13.52-19.78,15-22.42,3.1-35.39-20.47-38.5-36.52-4.59-23.71-8.07-30.15-16.38-34.36a.38.38,0,0,1,.05-.72,338.05,338.05,0,0,1,41.78-5.31.31.31,0,0,1,.35.35c-1.55,9-3.94,45.63,6.55,44.87,9.9-.73,3.46-33.95,2.16-45.31a.32.32,0,0,1,.32-.38c8.54-.34,24.08-.61,33.83-.19a.42.42,0,0,1,.38.61A103.86,103.86,0,0,0,270.2,243C270,253,269.74,260.56,267.66,266.41ZM379,310.23c-20,0-37.26-15.19-37.26-34.85,0-16,13.33-25,27.3-25a29.81,29.81,0,0,1,21.31,9,.24.24,0,0,0,.41-.2c-.75-5.83-10.38-16-26.85-16-18.73,0-37,16.24-36.68,28.14a.47.47,0,0,1-.43.48c-19.61,1.44-38.57,3.22-52,5.18a.48.48,0,0,1-.54-.56c4-23,29.56-46.91,38.66-57.39a.19.19,0,0,0-.17-.31c-13.65,2.14-24.09,17-32.54,18.72a.21.21,0,0,1-.26-.19c-.59-9.53,5.07-27.11,10.51-33.46a.41.41,0,0,1,.27-.13c29.11-1,51.6-5.81,75.25-13.16a.22.22,0,0,1,.27.18c2.8,28.1-44,27.94-45.59,51a.22.22,0,0,0,.37.18c14-12.74,32.2-18.47,50.88-18.47C390.2,223.4,418,235.86,418,265,418,288.53,403.2,310.23,379,310.23Zm81.53-41.64c-6.4,0-23.43-.59-33.6-.58,0,0,.52-15.3-6.66-28.35a50.57,50.57,0,0,0-20.92-20.44.14.14,0,0,1,0-.22h0c12.72-15.19,17.86-26.45,18.94-29,.08-.21-.17-.39-.38-.3-19.17,7.85-17.43,23-46.74,24.47a.28.28,0,0,1-.31-.28c.66-7.74,3.89-17.68,8.68-28.33h0c27.83-11.65,46.36-24.79,61.07-49.11a.45.45,0,0,1,.69-.11c33.44,29.09,16.6,43.25-4,60.29-12,9.92-15.48,19.4-16.35,22.51h0c0,.16.06.21.16.1,5.43-6.27,20.89-16.39,47.75-26.49a.48.48,0,0,1,.65.3c1.38,6.09,0,26.5-3.42,39.56-2.19,8.31,2,12.07,4.83,15.92C477.74,258,472.68,268.59,460.48,268.59Z" transform="translate(-44.16 -59.71)"/><path class="cls-1" d="M174.35,237.62c-3.47-8.17-14.46-1-14.46-1a83.75,83.75,0,0,1,7.1,11.54C173.18,246.21,176.13,241.8,174.35,237.62Z" transform="translate(-44.16 -59.71)"/><path class="cls-1" d="M192.66,151.22c4-.92,2.89-7,2.31-14.36s0-14.88-4.15-14.35c-3.69.46-7,8.66-6.39,16S189.59,151.92,192.66,151.22Z" transform="translate(-44.16 -59.71)"/><path class="cls-1" d="M171.56,265.41a61.42,61.42,0,0,1-.95,19.07s18.39,3.69,18.15-9.37C188.59,265.47,178,264.35,171.56,265.41Z" transform="translate(-44.16 -59.71)"/><polygon class="cls-1" points="396.05 245.79 399.24 245.79 399.24 255.44 401.94 255.44 401.94 245.79 405.04 245.79 405.04 243.51 396.05 243.51 396.05 245.79"/><polygon class="cls-1" points="414.78 248.43 411.31 243.51 408.73 243.51 408.73 255.44 411.42 255.44 411.42 247.83 414.56 252.27 415.01 252.27 418.13 247.83 418.13 255.44 420.83 255.44 420.83 243.51 418.24 243.51 414.78 248.43"/></svg>