<?xml version="1.0" encoding="utf-8"?>
<!-- Generator: Adobe Illustrator 20.1.0, SVG Export Plug-In . SVG Version: 6.00 Build 0)  -->
<svg version="1.1" id="Layer_1" xmlns="http://www.w3.org/2000/svg" xmlns:xlink="http://www.w3.org/1999/xlink" x="0px" y="0px"
	 viewBox="0 0 20 20" style="enable-background:new 0 0 20 20;" xml:space="preserve">
<style type="text/css">
	.st0{fill:#9B9B9B;}
</style>
<title>pressies-logo</title>
<g>
	<path class="st0" d="M7.6,7.8c0.3,0,0.5,0.2,0.5,0.4l0,0c0,0.3-0.2,0.5-0.4,0.5H7.6c-0.3,0-0.5-0.2-0.5-0.4V8.2
		C7,8,7.3,7.8,7.6,7.8L7.6,7.8z M7.6,11c0.3,0,0.5,0.2,0.5,0.4v0.1c0,0.3-0.2,0.5-0.4,0.5H7.6c-0.3,0-0.5-0.2-0.5-0.4v-0.1
		C7.1,11.2,7.3,11,7.6,11L7.6,11L7.6,11z"/>
	<path class="st0" d="M9.6,7.3H12C13,7.2,13.8,8,13.9,9c0,0.1,0,0.2,0,0.3c0,1-0.8,1.8-1.8,1.9H12h-1.6v1.6H9.6V7.3z M10.4,8v2.4
		h1.5c0.6,0,1.1-0.4,1.2-1.1V9.2c0-0.6-0.4-1.1-1-1.2C12,8,12,8,11.9,8H10.4z"/>
	<path class="st0" d="M10,16.7c-3.7,0-6.7-3-6.7-6.7s3-6.7,6.7-6.7s6.7,3,6.7,6.7l0,0C16.7,13.7,13.7,16.7,10,16.7z M10,3.9
		c-3.3,0-6,2.7-6,6s2.7,6,6,6s6-2.7,6-6S13.3,3.9,10,3.9z"/>
</g>
</svg>
