<svg xmlns="http://www.w3.org/2000/svg" viewBox="0 0 48.82 48.53"><title>Asset 31</title><g id="Layer_2" data-name="Layer 2"><g id="Layer_1-2" data-name="Layer 1"><path d="M16.06,19.22a1.58,1.58,0,1,1,.25,3.15h-.25a1.58,1.58,0,0,1-.25-3.15Zm0,9.42a1.58,1.58,0,0,1,.25,3.15,1,1,0,0,1-.25,0,1.58,1.58,0,1,1-.25-3.15Z"/><path d="M21.84,17.73h7a5.17,5.17,0,0,1,5.59,4.72,5.89,5.89,0,0,1,0,.84,5.3,5.3,0,0,1-5.11,5.47h-5.1v4.53H21.84Zm2.38,2.08v6.86h4.3a3.26,3.26,0,0,0,3.42-3.09v-.29a3.23,3.23,0,0,0-3-3.47,2.37,2.37,0,0,0-.46,0Z"/><path d="M24.43,42a17.19,17.19,0,1,1,17.2-17.23A17.18,17.18,0,0,1,24.43,42Zm0-32.59a15.4,15.4,0,1,0,15.4,15.4h0A15.41,15.41,0,0,0,24.45,9.37h0Z"/><path d="M5.72,8.72,7.3,7.11a1.66,1.66,0,0,1,2.33-.18l.18.18a1.69,1.69,0,0,1,.1,2.39l-.1.1-1,1.07,1,1-.53.54Zm1-.08L8.3,10.18l1-1A1.1,1.1,0,1,0,7.76,7.62l0,0Z"/><path d="M10.21,4.54l1.86-1.11a1.63,1.63,0,0,1,2.29.22l.14.19A1.58,1.58,0,0,1,14,6c.67.18,1.54.53,2.06.21a1.42,1.42,0,0,0,.45-.43l.38.49a1.86,1.86,0,0,1-.58.57c-1,.57-2.41-.29-3.13-.35l-.65.39.95,1.55-.65.39Zm1,.18,1,1.61,1.22-.76a.95.95,0,1,0-1-1.61Z"/><path d="M17.43,6.25l-1.36-4.8,3.72-1,.18.65-3,.86.39,1.34,2.5-.7L20,3.2l-2.5.7L18,5.41l3-.86.19.65Z"/><path d="M22.87,2.75a1.26,1.26,0,0,1-1.18-1.22c0-.78.56-1.48,1.91-1.53a4.09,4.09,0,0,1,1.76.33l-.2.73A3.36,3.36,0,0,0,23.6.71c-.8,0-1.14.36-1.13.73s.26.5.7.6l1,.23c.89.2,1.37.56,1.4,1.26,0,.93-.76,1.56-1.94,1.6a3.73,3.73,0,0,1-1.74-.36L22.05,4a3.09,3.09,0,0,0,1.57.4c.73,0,1.18-.35,1.16-.81s-.34-.53-.9-.65Z"/><path d="M27.81,3a1.29,1.29,0,0,1-.87-1.46c.15-.77.88-1.31,2.2-1.06a4,4,0,0,1,1.64.72l-.36.66A3.22,3.22,0,0,0,29,1.17c-.78-.15-1.19.09-1.26.46s.14.55.55.74l.92.44c.82.41,1.21.86,1.07,1.55-.17.91-1.08,1.35-2.24,1.13a3.72,3.72,0,0,1-1.59-.79L26.74,4a3.09,3.09,0,0,0,1.45.74c.71.13,1.22-.07,1.31-.53s-.21-.59-.73-.83Z"/><path d="M32.69,1.49l.71.27L31.64,6.42l-.71-.27Z"/><path d="M32.91,6.9l2.58-4.27,3.31,2-.37.57L35.74,3.58,35,4.78l2.23,1.34-.35.58L34.67,5.36,33.86,6.7l2.69,1.62-.34.58Z"/><path d="M39.16,8.44a1.27,1.27,0,0,1,.09-1.7c.54-.55,1.46-.6,2.42.35a3.92,3.92,0,0,1,1,1.51L42,9a3.3,3.3,0,0,0-.82-1.38c-.57-.56-1-.59-1.3-.32s-.19.54,0,.92l.52.88c.46.8.53,1.39,0,1.89-.65.66-1.66.52-2.5-.31A3.6,3.6,0,0,1,37,9.11l.64-.39a3,3,0,0,0,.8,1.42c.51.51,1.06.62,1.38.29s.16-.61-.14-1.1Z"/><path d="M42.67,13.3a.48.48,0,0,1-.11.66l-.07,0a.5.5,0,0,1-.7-.18.52.52,0,0,1,.18-.7.48.48,0,0,1,.66.11Zm2.59-1.55a.48.48,0,0,1-.1.66l-.07,0a.45.45,0,0,1-.64-.08.21.21,0,0,1-.06-.1.51.51,0,0,1,.87-.52Z"/><path d="M47.43,16.2,48,18.37a1.67,1.67,0,0,1-1,2.13l-.25.06a1.68,1.68,0,0,1-2.12-1.1.57.57,0,0,1,0-.14l-.4-1.44-1.4.39-.2-.74Zm-.44.91-2.12.59.41,1.3a1,1,0,0,0,1.15.82.59.59,0,0,0,.19-.05,1,1,0,0,0,.86-1.12,1.6,1.6,0,0,0,0-.21Z"/><path d="M48.82,22.2v2.16c0,1-.41,1.88-1.58,1.89a1.56,1.56,0,0,1-1.57-1.55h0c-.5.48-1.24,1.06-1.23,1.67a1.37,1.37,0,0,0,.15.6l-.62.09a1.69,1.69,0,0,1-.2-.8c0-1.1,1.47-1.93,1.89-2.52V23H43.84v-.76Zm-.66.77H46.28v1.48a.92.92,0,0,0,.84,1h.1a.88.88,0,0,0,.94-.85.38.38,0,0,0,0-.15Z"/><path d="M43.68,27.58l4.83,1.26-1,3.74-.66-.17.79-3L46.32,29l-.66,2.52L45,31.35l.65-2.52-1.51-.39-.79,3-.65-.17Z"/><path d="M44,34a1.27,1.27,0,0,1,1.65-.4c.68.37,1,1.23.35,2.42a4.22,4.22,0,0,1-1.17,1.35l-.53-.54a3.22,3.22,0,0,0,1.09-1.17c.38-.7.27-1.16-.06-1.34s-.57,0-.87.3l-.7.75c-.63.66-1.18.89-1.8.56a1.68,1.68,0,0,1-.4-2.48,3.86,3.86,0,0,1,1.2-1.31l.55.5a3.17,3.17,0,0,0-1.14,1.16c-.34.64-.29,1.19.11,1.41s.63,0,1-.45Z"/><path d="M41.29,38.18a1.3,1.3,0,0,1,1.7,0c.59.51.69,1.42-.2,2.44a3.93,3.93,0,0,1-1.45,1L41,41a3.16,3.16,0,0,0,1.33-.89c.52-.6.52-1.07.24-1.32s-.55-.16-.92.1l-.85.57c-.76.5-1.35.61-1.88.14-.7-.61-.61-1.62.17-2.5a3.89,3.89,0,0,1,1.46-1l.42.62a3,3,0,0,0-1.36.87c-.48.55-.56,1.09-.21,1.4s.61.12,1.09-.21Z"/><path d="M40.09,43.15l-.59.48-3.14-3.87.59-.49Z"/><path d="M35.33,40.6l2.4,4.4-3.38,1.86L34,46.27l2.75-1.51-.67-1.23-2.28,1.26-.33-.59,2.28-1.26L35,41.57l-2.75,1.52-.33-.59Z"/><path d="M30.83,45.24a1.29,1.29,0,0,1,1.42.93c.2.75-.22,1.56-1.52,1.91a4,4,0,0,1-1.79.08V47.4a3.33,3.33,0,0,0,1.6,0c.78-.21,1-.61.94-1s-.37-.43-.82-.43h-1c-.92,0-1.47-.25-1.65-.93-.24-.89.39-1.68,1.53-2a3.82,3.82,0,0,1,1.78,0v.75a3.18,3.18,0,0,0-1.62,0c-.7.19-1.07.6-.95,1s.45.44,1,.43Z"/><path d="M24.62,45.52a.46.46,0,0,1-.51-.4V45a.45.45,0,0,1,.38-.51h.13a.52.52,0,0,1,.6.4.5.5,0,0,1-.4.6.34.34,0,0,1-.2,0Zm0,3a.51.51,0,1,1-.2-1,.67.67,0,0,1,.2,0,.52.52,0,0,1,.6.4.5.5,0,0,1-.4.6A.34.34,0,0,1,24.62,48.52Z"/><path d="M20,48.49l-2.18-.58a1.66,1.66,0,0,1-1.32-2l.06-.22a1.71,1.71,0,0,1,2-1.27l.12,0,1.45.38.37-1.4.74.19Zm-.52-.84L20,45.52l-1.33-.35a1,1,0,0,0-1.32.67l0,.09a1,1,0,0,0,.56,1.3.79.79,0,0,0,.22.06Z"/><path d="M14.09,46.62l-1.87-1.08a1.61,1.61,0,0,1-.89-2.11,2,2,0,0,1,.1-.21,1.57,1.57,0,0,1,2.13-.57c-.17-.67-.29-1.6-.82-1.9a1.55,1.55,0,0,0-.6-.18l.24-.58a1.82,1.82,0,0,1,.79.24c.95.54.92,2.24,1.22,2.9l.65.37L16,41.91l.66.38Zm-.32-1L14.7,44l-1.27-.71a.93.93,0,0,0-1.28.23.56.56,0,0,1-.05.08.9.9,0,0,0,.26,1.25l.13.07Z"/><path d="M12.05,39.46,8.54,43,5.8,40.28l.47-.48L8.5,42l1-1L7.65,39.17l.47-.48L10,40.52l1.1-1.11L8.83,37.22l.48-.48Z"/><path d="M6.34,36.48a1.3,1.3,0,0,1-.49,1.62c-.66.41-1.56.24-2.27-.91A4.2,4.2,0,0,1,3,35.5l.73-.19a3.19,3.19,0,0,0,.47,1.54c.42.68.87.81,1.19.61s.31-.47.17-.9l-.29-1c-.26-.87-.18-1.47.42-1.84.78-.48,1.72-.11,2.34.9a3.61,3.61,0,0,1,.53,1.69l-.71.23A3,3,0,0,0,7.43,35c-.38-.62-.88-.86-1.27-.62s-.3.56-.12,1.11Z"/><path d="M4.08,32.07a1.28,1.28,0,0,1-.84,1.48c-.74.25-1.57-.12-2-1.4a3.84,3.84,0,0,1-.18-1.78h.75a3.33,3.33,0,0,0,.1,1.6c.26.76.67,1,1,.87s.41-.39.38-.83l-.07-1c0-.91.16-1.47.83-1.7.87-.29,1.7.29,2.08,1.41a3.79,3.79,0,0,1,.13,1.77l-.74.06a3.16,3.16,0,0,0-.09-1.67c-.23-.69-.66-1-1.1-.88s-.41.47-.37,1Z"/><path d="M.43,28.52l-.11-.75L5.21,27l.12.75Z"/><path d="M5,25.69l-5-.13L.1,21.7H.78L.69,24.83h1.4l.07-2.6h.68l-.07,2.6H4.33l.1-3h.68Z"/><path d="M3.27,19.47a1.27,1.27,0,0,1-1.52.75C1,20,.51,19.22.87,18a3.9,3.9,0,0,1,.84-1.58l.64.4a3.32,3.32,0,0,0-.81,1.39c-.21.77,0,1.19.36,1.29s.56-.1.78-.48l.52-.89c.46-.79,1-1.14,1.63-.95.89.24,1.25,1.18.94,2.32A3.73,3.73,0,0,1,4.9,21l-.65-.37a3.15,3.15,0,0,0,.85-1.38c.19-.7,0-1.22-.43-1.34s-.6.16-.88.66Z"/><path d="M3.43,12.09a.47.47,0,0,1,.62-.23l.08,0a.51.51,0,0,1,.13.71.5.5,0,0,1-.64.17.46.46,0,0,1-.24-.6A.41.41,0,0,1,3.43,12.09Zm2.63,1.5a.51.51,0,0,1,.69-.16.5.5,0,0,1-.51.86A.47.47,0,0,1,6,13.67Z"/></g></g></svg>