<?xml version="1.0" encoding="UTF-8"?>
<svg width="285px" height="92px" viewBox="0 0 285 92" version="1.1" xmlns="http://www.w3.org/2000/svg" xmlns:xlink="http://www.w3.org/1999/xlink">
    <title>417E84B2-21BA-40D2-AD0C-E4747C08DBE9</title>
    <defs>
        <polygon id="path-1" points="0 0.607 61.3038631 0.607 61.3038631 91 0 91"></polygon>
        <polygon id="path-3" points="0.7847 0.1543 4.755 0.1543 4.755 6.0163 0.7847 6.0163"></polygon>
    </defs>
    <g id="Page-1" stroke="none" stroke-width="1" fill="none" fill-rule="evenodd">
        <g id="Bakked-Landing---Desktop-HD" transform="translate(-96.000000, -8750.000000)">
            <g id="Bakked-Logo-|-Footer" transform="translate(96.000000, 8750.000000)">
                <path d="M91.5643,58.9547 L88.3483,58.9547 L88.3483,76.0337 L91.5643,76.0337 C96.6183,76.0337 97.6123,73.8147 97.6123,67.6877 C97.6123,62.0967 96.7713,58.9547 91.5643,58.9547 L91.5643,58.9547 Z M88.3483,51.7597 L91.9493,51.7597 C95.9313,51.7597 96.9993,49.3097 96.9993,43.7957 C96.9993,38.2827 95.9313,36.0597 91.9493,36.0597 L88.3483,36.0597 L88.3483,51.7597 Z M100.0623,54.9727 L100.0623,55.1297 C105.4263,57.1957 106.5733,61.0987 106.5733,67.8377 C106.5733,78.3307 103.7383,83.6907 92.7893,83.6907 L79.1583,83.6907 L79.1583,28.4017 L93.4023,28.4017 C102.8193,28.4017 105.9603,33.5307 105.9603,43.5647 C105.9603,49.4587 104.8883,52.9857 100.0623,54.9727 L100.0623,54.9727 Z" id="Fill-1" fill="#FEFEFE"></path>
                <path d="M122.8147,64.319 L129.6317,64.319 L126.2627,41.495 L122.8147,64.319 Z M120.8277,28.402 L131.6227,28.402 L141.2717,83.691 L132.4667,83.691 L130.8567,72.204 L121.5897,72.204 L119.9827,83.691 L111.1747,83.691 L120.8277,28.402 Z" id="Fill-3" fill="#FEFEFE"></path>
                <polygon id="Fill-5" fill="#FEFEFE" points="157.2034 51.7599 166.9304 28.4019 175.9634 28.4019 166.3924 50.4569 176.7324 83.6909 167.3864 83.6909 160.4984 59.1859 157.2034 66.3059 157.2034 83.6909 148.0894 83.6909 148.0894 28.4019 157.2034 28.4019"></polygon>
                <polygon id="Fill-7" fill="#FEFEFE" points="192.3616 51.7599 202.0856 28.4019 211.1246 28.4019 201.5506 50.4569 211.8866 83.6909 202.5486 83.6909 195.6526 59.1859 192.3616 66.3059 192.3616 83.6909 183.2506 83.6909 183.2506 28.4019 192.3616 28.4019"></polygon>
                <polygon id="Fill-9" fill="#FEFEFE" points="227.594 51.2223 238.315 51.2223 238.315 58.9543 227.594 58.9543 227.594 75.4953 242.753 75.4953 242.753 83.6913 218.48 83.6913 218.48 28.4023 242.14 28.4023 242.14 36.4443 227.594 36.4443"></polygon>
                <path d="M259.5359,75.88 L263.2119,75.88 C267.6499,75.88 268.7999,73.736 268.7999,69.369 L268.7999,42.72 C268.7999,38.357 267.6499,36.213 263.2119,36.213 L259.5359,36.213 L259.5359,75.88 Z M277.9899,68.756 C277.9899,77.412 274.3139,83.691 263.5179,83.691 L250.4219,83.691 L250.4219,28.402 L263.5179,28.402 C274.3139,28.402 277.9899,34.681 277.9899,43.333 L277.9899,68.756 Z" id="Fill-11" fill="#FEFEFE"></path>
                <g id="Group-15" transform="translate(0.000000, 0.393500)">
                    <mask id="mask-2" fill="white">
                        <use xlink:href="#path-1"></use>
                    </mask>
                    <g id="Clip-14"></g>
                    <path d="M26.5354,63.278 C27.6154,64.858 29.2174,65.287 30.5224,65.275 C31.8224,65.287 33.4244,64.858 34.5024,63.278 C36.3284,60.601 34.8144,58.366 34.3484,57.596 C33.8864,56.821 30.5224,50.91 30.5224,50.91 C28.1554,55.059 27.0434,56.983 26.6094,57.728 C26.5564,57.816 26.4954,57.918 26.4304,58.032 C26.4664,57.97 26.5154,57.886 26.5794,57.78 C26.4774,57.953 26.4174,58.057 26.3924,58.099 C25.8164,59.123 25.0124,61.045 26.5354,63.278 M16.1904,49.932 C14.5744,52.71 15.0804,51.784 16.1904,49.932 M15.7604,70.925 C19.7974,76.846 25.7794,78.447 30.6604,78.398 C35.5274,78.447 41.5164,76.846 45.5524,70.925 C52.3804,60.929 46.6774,52.779 44.8904,49.932 C42.6074,46.283 36.5914,40.244 36.5914,40.244 L32.6184,47.284 C32.6184,47.284 35.7094,50.256 38.0294,53.559 C39.6134,55.816 42.5964,60.977 38.7854,66.557 C36.5284,69.861 33.1874,70.757 30.4654,70.729 C27.7444,70.757 24.3564,69.892 22.1474,66.557 C18.7214,61.389 21.1664,56.525 22.1984,54.833 C23.1844,53.141 25.7344,49.051 30.4654,40.745 C30.4654,40.745 35.2784,32.437 36.3884,30.456 C41.8804,20.637 37.2204,13.824 37.2204,13.824 C29.7214,30.044 17.9814,46.858 16.2274,49.87 C14.3784,52.906 9.0774,61.131 15.7604,70.925 M54.8844,42.626 C51.0394,36.83 43.3794,28.451 43.3794,28.451 L39.4494,35.423 C39.4494,35.423 47.2364,43.551 49.9224,47.691 C53.2714,52.851 58.0824,63.791 50.1144,73.998 C44.3684,81.356 37.0524,83.792 30.7074,83.734 C24.3564,83.792 16.5104,81.743 11.3054,73.998 C3.2854,62.078 8.7724,52.547 11.9094,46.576 C14.0254,42.552 28.4154,17.865 30.3534,14.569 C35.5484,5.709 30.6114,0.607 30.6114,0.607 C17.2964,26.436 8.9814,37.947 6.1074,43.086 C3.2044,48.274 -5.7226,61.943 5.5314,78.418 C12.3254,88.38 22.3984,91.073 30.6134,90.999 C38.8034,91.073 48.8834,88.38 55.6754,78.418 C67.1684,61.594 58.0094,47.335 54.8844,42.626" id="Fill-13" fill="#FDC013" mask="url(#mask-2)"></path>
                </g>
                <polygon id="Fill-16" fill="#FEFEFE" points="279.281 25.4161 279.281 30.4101 278.315 30.4101 278.315 25.4161 277.283 25.4161 277.283 24.5471 280.296 24.5471 280.296 25.4161"></polygon>
                <g id="Group-20" transform="translate(280.000000, 24.393500)">
                    <mask id="mask-4" fill="white">
                        <use xlink:href="#path-3"></use>
                    </mask>
                    <g id="Clip-19"></g>
                    <polygon id="Fill-18" fill="#FEFEFE" mask="url(#mask-4)" points="3.8787 6.0163 3.8787 1.5913 3.0417 6.0163 2.4497 6.0163 1.6377 1.5993 1.6377 6.0163 0.7847 6.0163 0.7847 0.1543 2.0837 0.1543 2.7737 3.8233 3.4717 0.1543 4.7557 0.1543 4.7557 6.0163"></polygon>
                </g>
            </g>
        </g>
    </g>
</svg>