<?xml version="1.0" encoding="UTF-8"?>
<svg width="37px" height="35px" viewBox="0 0 37 35" version="1.1" xmlns="http://www.w3.org/2000/svg" xmlns:xlink="http://www.w3.org/1999/xlink">
    <title>739A8FD3-A9E6-4D1A-A9DA-D4490BE4ED61</title>
    <g id="Page-1" stroke="none" stroke-width="1" fill="none" fill-rule="evenodd">
        <g id="Bakked-Landing---Desktop-HD" transform="translate(-1118.000000, -9060.000000)" fill="#FFFFFF" fill-rule="nonzero">
            <g id="Chat" transform="translate(1118.000000, 9060.000000)">
                <path d="M32.6428598,-9.9475983e-13 L4.35714017,-9.9475983e-13 C2.22689891,-9.9475983e-13 0.5,1.67894316 0.5,3.7500279 L0.5,23.7502011 C0.5,25.8212859 2.22689891,27.500229 4.35714017,27.500229 L8.92144781,27.500229 L8.22203981,33.6127745 C8.14406833,34.2989857 8.65303003,34.9166416 9.35884148,34.9924479 C9.72331109,35.0315595 10.08763,34.9175206 10.3601912,34.6790422 L18.5655789,27.500229 L32.6428598,27.500229 C34.7731011,27.500229 36.5,25.8212859 36.5,23.7502011 L36.5,3.7500279 C36.5,1.67894316 34.7731011,-9.9475983e-13 32.6428598,-9.9475983e-13 Z M33.9285714,23.9074008 C33.9285714,24.6028938 33.3528641,25.1666814 32.6427598,25.1666814 L18.0718356,25.1666814 C17.7541494,25.1667552 17.4477635,25.2820804 17.2116647,25.4903004 L11.1508424,30.8333333 L11.6355455,26.5657099 C11.7143455,25.8745702 11.2062134,25.2516812 10.5004785,25.1744288 C10.4530177,25.1692639 10.4053309,25.1666076 10.3575687,25.1666814 L4.35716483,25.1666814 C3.64706054,25.1666814 3.07142857,24.6028938 3.07142857,23.9074008 L3.07142857,3.75928057 C3.07142857,3.06378759 3.64706054,2.5 4.35716483,2.5 L32.6428352,2.5 C33.3529395,2.5 33.9285714,3.06378759 33.9285714,3.75928057 L33.9285714,23.9074008 L33.9285714,23.9074008 Z" id="Shape"></path>
                <path d="M30.1999771,6 L6.80002285,6 C6.08202816,6 5.5,6.67155915 5.5,7.5 C5.5,8.32844085 6.08202816,9 6.80002285,9 L30.1999771,9 C30.9179718,9 31.5,8.32844085 31.5,7.5 C31.5,6.67155915 30.9179718,6 30.1999771,6 Z" id="Path"></path>
                <path d="M30.1999771,12 L6.80002285,12 C6.08202816,12 5.5,12.6715591 5.5,13.5 C5.5,14.3284409 6.08202816,15 6.80002285,15 L30.1999771,15 C30.9179718,15 31.5,14.3284409 31.5,13.5 C31.5,12.6715591 30.9179718,12 30.1999771,12 Z" id="Path"></path>
                <path d="M30.1999771,18 L6.80002285,18 C6.08202816,18 5.5,18.6715591 5.5,19.5 C5.5,20.3284409 6.08202816,21 6.80002285,21 L30.1999771,21 C30.9179718,21 31.5,20.3284409 31.5,19.5 C31.5,18.6715591 30.9179718,18 30.1999771,18 Z" id="Path"></path>
            </g>
        </g>
    </g>
</svg>