<?xml version="1.0" encoding="UTF-8"?>
<svg width="29px" height="29px" viewBox="0 0 29 29" version="1.1" xmlns="http://www.w3.org/2000/svg" xmlns:xlink="http://www.w3.org/1999/xlink">
    <title>3ED95BFC-0C68-4A72-B514-D4EFF2E029A3</title>
    <g id="Page-1" stroke="none" stroke-width="1" fill="none" fill-rule="evenodd">
        <g id="Bakked-Landing---Desktop-HD" transform="translate(-986.000000, -9060.000000)" fill="#FFFFFF" fill-rule="nonzero">
            <g id="Facebook" transform="translate(986.000000, 9060.000000)">
                <path d="M27.3991943,0 L1.59938968,0 C0.715972921,0.000531040927 0,0.717034955 0,1.60080569 L0,27.4006103 C0.000531040928,28.2840271 0.717034955,29 1.6008057,29 L15.491211,29 L15.491211,17.7851562 L11.7246094,17.7851562 L11.7246094,13.3955078 L15.491211,13.3955078 L15.491211,10.1650452 C15.491211,6.41879885 17.7782532,4.37973635 21.12005,4.37973635 C22.7206787,4.37973635 24.0961609,4.49903564 24.4970703,4.55231327 L24.4970703,8.46777345 L22.1926819,8.46777345 C20.3745178,8.46777345 20.0224609,9.33171997 20.0224609,10.599762 L20.0224609,13.3955078 L24.3696289,13.3955078 L23.8032227,17.7851562 L20.0224609,17.7851562 L20.0224609,29 L27.3991943,29 C28.2831421,29 29,28.28385 29,27.3999023 C29,27.3997253 29,27.3995483 29,27.3991943 L29,1.59938968 C28.999646,0.71597292 28.2829651,0 27.3991943,0 Z" id="Path"></path>
            </g>
        </g>
    </g>
</svg>