<?xml version="1.0" encoding="UTF-8"?>
<svg width="1530px" height="256px" viewBox="0 0 1530 256" version="1.1" xmlns="http://www.w3.org/2000/svg" xmlns:xlink="http://www.w3.org/1999/xlink">
    <title>68502245-185B-490F-8B25-1B7666169ACD</title>
    <g id="Page-1" stroke="none" stroke-width="1" fill="none" fill-rule="evenodd">
        <g id="Bakked-Landing---Desktop-HD" transform="translate(64.000000, -9160.000000)" fill="#FDC013">
            <g id="Footer-Caution-Lines" transform="translate(-64.000000, 9160.000000)">
                <polygon id="Fill-1" points="116.055556 0 0.5 256 84.9644645 256 200.5 0"></polygon>
                <polygon id="Fill-2" points="337.075576 0 221.5 256 305.964464 256 421.5 0"></polygon>
                <polygon id="Fill-3" points="558.055556 0 442.5 256 526.964464 256 642.5 0"></polygon>
                <polygon id="Fill-4" points="781.055556 0 665.5 256 749.964464 256 865.5 0"></polygon>
                <polygon id="Fill-5" points="1002.05556 0 886.5 256 970.944444 256 1086.5 0"></polygon>
                <polygon id="Fill-6" points="1223.05556 0 1107.5 256 1191.96446 256 1307.5 0"></polygon>
                <polygon id="Fill-7" points="1445.07558 0 1329.5 256 1413.96446 256 1529.5 0"></polygon>
            </g>
        </g>
    </g>
</svg>