<?xml version="1.0" encoding="UTF-8"?>
<svg width="30px" height="30px" viewBox="0 0 30 30" version="1.1" xmlns="http://www.w3.org/2000/svg" xmlns:xlink="http://www.w3.org/1999/xlink">
    <title>FEA96756-2DFB-4788-9CA2-301CA99FECBA</title>
    <g id="Page-1" stroke="none" stroke-width="1" fill="none" fill-rule="evenodd">
        <g id="Bakked-Landing---Desktop-HD" transform="translate(-1053.000000, -9060.000000)" fill="#FFFFFF" fill-rule="nonzero">
            <g id="Instagram" transform="translate(1053.000000, 9060.000000)">
                <path d="M29.0225835,8.57519363 C28.9546325,7.03430721 28.7054053,5.97496162 28.3483862,5.05702447 C27.9800788,4.08265668 27.4134521,3.21030648 26.6710826,2.48511839 C25.9457561,1.74864418 25.0674847,1.17637188 24.1042192,0.813888446 C23.1807947,0.456937466 22.1267805,0.207757761 20.5856,0.13981977 C19.0329101,0.0661281039 18.5399891,0.0490883 14.6019333,0.0490883 C10.6638776,0.0490883 10.1709566,0.0661281039 8.62402138,0.134066094 C7.08284095,0.202004084 6.02329323,0.451405015 5.10540219,0.808134769 C4.13062721,1.17637188 3.25811056,1.7428905 2.5327841,2.48511839 C1.79616936,3.21030648 1.22400913,4.08841035 0.861235261,5.05149202 C0.504216171,5.97496162 0.25498892,7.02855353 0.187037966,8.56943995 C0.113332239,10.1218337 0.0962891833,10.6146607 0.0962891833,14.5519651 C0.0962891833,18.4892696 0.113332239,18.9820966 0.181283192,20.5287366 C0.249234145,22.0696231 0.498682665,23.1289687 0.855701754,24.0469058 C1.22400913,25.0212736 1.79616936,25.8936238 2.5327841,26.6188119 C3.25811056,27.3552861 4.13638198,27.9275584 5.09964741,28.2900418 C6.02329323,28.6469928 7.07708617,28.8961725 8.61848788,28.9641105 C10.1652018,29.0322697 10.6583441,29.0490883 14.5963998,29.0490883 C18.5344556,29.0490883 19.0273765,29.0322697 20.5743118,28.9641105 C22.1154922,28.8961725 23.1750399,28.6469928 24.092931,28.2900418 C26.0422596,27.5365278 27.5834401,25.9956414 28.3370979,24.0469058 C28.6938957,23.1234362 28.9433442,22.0696231 29.0112952,20.5287366 C29.0792461,18.9820966 29.0962892,18.4892696 29.0962892,14.5519651 C29.0962892,10.6146607 29.0905344,10.1218337 29.0225835,8.57519363 Z M26.1098768,20.0181747 C26.0464177,21.4587301 25.804508,22.23663 25.6028791,22.7552299 C25.107358,24.0402503 24.0877367,25.0601185 22.8030275,25.5557595 C22.2845531,25.7574373 21.5012157,25.9994056 20.0666349,26.062655 C18.5112118,26.1319816 18.0447199,26.1490883 14.1100304,26.1490883 C10.175341,26.1490883 9.70299826,26.1319816 8.15320099,26.062655 C6.7129944,25.9994056 5.93528283,25.7574373 5.41680846,25.5557595 C4.77749171,25.3194184 4.19555826,24.944874 3.72321549,24.4550852 C3.23354525,23.9767758 2.85909153,23.4005537 2.62280767,22.7610821 C2.42117874,22.2424822 2.17926903,21.4587301 2.11603491,20.0240269 C2.04672503,18.4682271 2.02962252,18.0013972 2.02962252,14.065755 C2.02962252,10.1301127 2.04672503,9.65765557 2.11603491,8.10770802 C2.17926903,6.66715266 2.42117874,5.88925277 2.62280767,5.37065284 C2.85909153,4.73095625 3.23354525,4.1491069 3.7290663,3.67642473 C4.20703492,3.18663591 4.78311756,2.81209151 5.42265927,2.57597544 C5.94113364,2.37429769 6.72469602,2.1323294 8.1590518,2.06885495 C9.71447492,1.9997533 10.1811918,1.98242163 14.1156563,1.98242163 C18.0561965,1.98242163 18.5226885,1.9997533 20.0724857,2.06885495 C21.5126923,2.1323294 22.2904039,2.37429769 22.8088783,2.57597544 C23.448195,2.81209151 24.0301285,3.18663591 24.5024713,3.67642473 C24.9921415,4.15473411 25.3665952,4.73095625 25.6028791,5.37065284 C25.804508,5.88925277 26.0464177,6.67277987 26.1098768,8.10770802 C26.1789617,9.6635078 26.1962892,10.1301127 26.1962892,14.065755 C26.1962892,18.0013972 26.1789617,18.4623749 26.1098768,20.0181747 Z" id="Shape"></path>
                <path d="M14.5933839,7.04760719 C10.4528331,7.04760719 7.09338391,10.4068337 7.09338391,14.5476072 C7.09338391,18.6883807 10.4528331,22.0476072 14.5933839,22.0476072 C18.7341574,22.0476072 22.0933839,18.6883807 22.0933839,14.5476072 C22.0933839,10.4068337 18.7341574,7.04760719 14.5933839,7.04760719 Z M14.5933839,19.2351072 C12.005245,19.2351072 9.90588391,17.1359607 9.90588391,14.5476072 C9.90588391,11.9592537 12.005245,9.86010719 14.5933839,9.86010719 C17.1817374,9.86010719 19.2808839,11.9592537 19.2808839,14.5476072 C19.2808839,17.1359607 17.1817374,19.2351072 14.5933839,19.2351072 L14.5933839,19.2351072 Z" id="Shape"></path>
                <path d="M24,7 C24,8.10446621 23.1045232,9 21.9998728,9 C20.8954768,9 20,8.10446621 20,7 C20,5.89527932 20.8954768,5 21.9998728,5 C23.1045232,5 24,5.89527932 24,7 L24,7 Z" id="Path"></path>
            </g>
        </g>
    </g>
</svg>