<?xml version="1.0" encoding="UTF-8"?>
<svg width="65px" height="64px" viewBox="0 0 65 64" version="1.1" xmlns="http://www.w3.org/2000/svg" xmlns:xlink="http://www.w3.org/1999/xlink">
    <title>2D743F54-6F90-4010-BA15-E5D75DD0E6EB</title>
    <g id="Page-1" stroke="none" stroke-width="1" fill="none" fill-rule="evenodd">
        <g id="Bakked-Landing---Desktop-HD" transform="translate(-688.000000, -7729.000000)" fill="#000000" fill-rule="nonzero">
            <g id="Instagram---Large" transform="translate(688.000000, 7729.000000)">
                <path d="M64.3373391,18.8162324 C64.1873784,15.4156555 63.6373596,13.0777894 62.8494554,11.0519971 C62.0366391,8.90166814 60.7861526,6.9764815 59.1478198,5.37606641 C57.5470994,3.75074401 55.6088452,2.48779824 53.483018,1.6878348 C51.4451156,0.900080918 49.1190153,0.350167085 45.7177895,0.200234969 C42.2911633,0.0376050845 41.2033377,0 32.512456,0 C23.8215744,0 22.7337488,0.0376050845 19.3198228,0.1875372 C15.918597,0.337469317 13.5802848,0.887871371 11.5545942,1.67513704 C9.40336667,2.48779824 7.47781269,3.73804624 5.87709222,5.37606641 C4.25145969,6.9764815 2.98876125,8.91436591 2.18815686,11.0397875 C1.40025266,13.0777894 0.850233901,15.4029578 0.700273176,18.8035347 C0.53761226,22.2295071 0.5,23.3171253 0.5,32.0063489 C0.5,40.6955725 0.53761226,41.7831906 0.687572985,45.1964653 C0.837533709,48.5970422 1.38804079,50.9349084 2.17594498,52.9607007 C2.98876125,55.1110296 4.25145969,57.0362163 5.87709222,58.6366314 C7.47781269,60.2619538 9.41606686,61.5248995 11.541894,62.324863 C13.5802848,63.1126169 15.9058968,63.6625307 19.3076109,63.8124628 C22.7210486,63.9628831 23.8093625,64 32.5002442,64 C41.1911258,64 42.2789514,63.9628831 45.6928774,63.8124628 C49.0941032,63.6625307 51.4324154,63.1126169 53.458106,62.324863 C57.7600727,60.6619355 61.1612985,57.2613586 62.8245433,52.9607007 C63.6119592,50.9226988 64.1624663,48.5970422 64.312427,45.1964653 C64.4623877,41.7831906 64.5,40.6955725 64.5,32.0063489 C64.5,23.3171253 64.4872998,22.2295071 64.3373391,18.8162324 Z M58.572889,44.9464157 C58.4351402,48.0720357 57.9100335,49.7598705 57.4723632,50.8850937 C56.3967494,53.6732444 54.1834858,55.8860857 51.3948031,56.9614943 C50.2693652,57.3990811 48.5689965,57.9240876 45.454992,58.061322 C42.0786782,58.2117423 41.0660771,58.2488592 32.5251562,58.2488592 C23.9842353,58.2488592 22.958934,58.2117423 19.5948322,58.061322 C16.4686158,57.9240876 14.7804589,57.3990811 13.655021,56.9614943 C12.2672739,56.4486973 11.0040871,55.6360361 9.97878582,54.5733253 C8.91587224,53.5355219 8.10305597,52.2852739 7.59016115,50.8977915 C7.15249086,49.7725683 6.62738416,48.0720357 6.49012363,44.9591135 C6.33967459,41.5834439 6.30255065,40.5705477 6.30255065,32.0312562 C6.30255065,23.4919647 6.33967459,22.466859 6.49012363,19.1038871 C6.62738416,15.9782671 7.15249086,14.2904323 7.59016115,13.1652091 C8.10305597,11.7772385 8.91587224,10.514781 9.99148601,9.48918706 C11.0289992,8.42647625 12.2794858,7.61381505 13.6677212,7.1015063 C14.7931591,6.6639195 16.4940161,6.13891298 19.6075324,6.00119042 C22.9838461,5.8512583 23.9969355,5.81365322 32.5373681,5.81365322 C41.0909892,5.81365322 42.1035903,5.8512583 45.4676922,6.00119042 C48.5939086,6.13891298 50.2820654,6.6639195 51.4075033,7.1015063 C52.7952504,7.61381505 54.0584372,8.42647625 55.0837385,9.48918706 C56.1466521,10.5269905 56.9594684,11.7772385 57.4723632,13.1652091 C57.9100335,14.2904323 58.4351402,15.9904767 58.572889,19.1038871 C58.7228497,22.4795567 58.760462,23.4919647 58.760462,32.0312562 C58.760462,40.5705477 58.7228497,41.5707461 58.572889,44.9464157 Z" id="Shape"></path>
                <path d="M33.5,16 C24.666825,16 17.5,23.3902983 17.5,32.5 C17.5,41.6097017 24.666825,49 33.5,49 C42.3336501,49 49.5,41.6097017 49.5,32.5 C49.5,23.3902983 42.3336501,16 33.5,16 Z M33.5,43.2031398 C27.7694866,43.2031398 23.1211977,38.4100819 23.1211977,32.5 C23.1211977,26.5899181 27.7694866,21.7968602 33.5,21.7968602 C39.2309885,21.7968602 43.8788023,26.5899181 43.8788023,32.5 C43.8788023,38.4100819 39.2309885,43.2031398 33.5,43.2031398 L33.5,43.2031398 Z" id="Shape"></path>
                <path d="M55.5,15 C55.5,17.2089324 53.7090465,19 51.4997456,19 C49.2909535,19 47.5,17.2089324 47.5,15 C47.5,12.7905586 49.2909535,11 51.4997456,11 C53.7090465,11 55.5,12.7905586 55.5,15 L55.5,15 Z" id="Path"></path>
            </g>
        </g>
    </g>
</svg>